# This file uses meters as units for non-parametric coordinates.

mtllib Aceite.mtl
g default
v -455.552496 29.933651 5212.508973
v -443.423579 29.933651 5212.508973
v -446.787022 66.077433 5211.317497
v -442.891165 66.077433 5211.317497
v -446.787022 66.077433 5206.989905
v -442.891165 66.077433 5206.989905
v -455.552496 29.933651 5205.798429
v -443.423579 29.933651 5205.798429
v -446.862191 62.199418 5211.137561
v -446.862191 62.199418 5207.169841
v -442.815997 62.199418 5207.169841
v -442.815997 62.199418 5211.137561
v -456.383410 52.530206 5212.809681
v -456.383410 52.530206 5205.497721
v -440.859435 52.530206 5205.497721
v -440.859435 52.530206 5212.809681
v -458.140338 32.057799 5213.445517
v -458.140338 32.057799 5204.861885
v -440.835738 32.057799 5204.861885
v -440.835738 32.057799 5213.445517
v -440.835738 49.752506 5213.445517
v -458.140338 49.752506 5213.445517
v -458.140338 49.752506 5204.861885
v -440.835738 49.752506 5204.861885
v -457.378105 52.530206 5206.592504
v -459.338131 49.752506 5206.101039
v -459.338131 32.057799 5206.101039
v -456.451139 29.933651 5206.824934
v -442.524937 29.933651 5206.824934
v -439.637945 32.057799 5206.101039
v -439.637945 49.752506 5206.101039
v -439.864740 52.530206 5206.592504
v -442.178148 62.199418 5207.820976
v -442.262007 66.077433 5207.681896
v -447.314256 66.077433 5207.681896
v -447.398114 62.199418 5207.820976
v -457.378105 52.530206 5211.787732
v -459.338131 49.752506 5212.288802
v -459.338131 32.057799 5212.288802
v -456.451139 29.933651 5211.550760
v -442.524937 29.933651 5211.550760
v -439.637945 32.057799 5212.288802
v -439.637945 49.752506 5212.288802
v -439.864740 52.530206 5211.787732
v -442.178148 62.199417 5210.529744
v -442.262007 66.077433 5210.671543
v -447.314256 66.077433 5210.671543
v -447.398114 62.199417 5210.529744
v -457.096639 49.752506 5214.076390
v -457.096639 32.057799 5214.076390
v -454.769463 29.933651 5213.031583
v -454.769463 29.933651 5211.550760
v -454.769463 29.933651 5206.824934
v -454.769463 29.933651 5205.275819
v -457.096639 32.057799 5204.231012
v -457.096639 49.752506 5204.231012
v -455.516682 52.530206 5204.940349
v -446.264665 62.199418 5206.838338
v -446.197070 66.077433 5206.637600
v -446.197070 66.077433 5207.681896
v -446.197070 66.077433 5210.671543
v -446.197070 66.077433 5211.669800
v -446.264665 62.199418 5211.469063
v -455.516682 52.530206 5213.367053
v -442.324492 49.752506 5214.076390
v -442.324492 32.057798 5214.076390
v -444.540515 29.933651 5213.031583
v -444.540515 29.933651 5211.550760
v -444.540515 29.933651 5206.824934
v -444.540515 29.933651 5205.275819
v -442.324492 32.057798 5204.231012
v -442.324492 49.752506 5204.231012
v -442.095755 52.530206 5204.940350
v -442.881171 62.199417 5206.838338
v -442.945539 66.077433 5206.637600
v -442.945539 66.077434 5207.681896
v -442.945539 66.077434 5210.671543
v -442.945539 66.077433 5211.669800
v -442.881171 62.199418 5211.469063
v -442.095755 52.530206 5213.367053
vt 0.129086 0.177650
vt 0.130954 0.174470
vt 0.140052 0.182073
vt 0.140526 0.184634
vt 0.091683 0.153873
vt 0.094918 0.150207
vt 0.132677 0.172657
vt 0.139564 0.180668
vt 0.125289 0.190689
vt 0.138503 0.197987
vt 0.084122 0.174539
vt 0.086024 0.146611
vt 0.089061 0.142981
vt 0.097417 0.148166
vt 0.125041 0.194226
vt 0.137172 0.201380
vt 0.083985 0.180440
vt 0.075099 0.170250
vt 0.056628 0.111662
vt 0.061132 0.107066
vt 0.091366 0.141042
vt 0.163121 0.173289
vt 0.163971 0.164040
vt 0.072140 0.175657
vt 0.189553 0.138551
vt 0.040664 0.134238
vt 0.043655 0.106618
vt 0.045188 0.101941
vt 0.065504 0.106146
vt 0.036400 0.138400
vt 0.193702 0.130228
vt 0.030478 0.124448
vt 0.025672 0.127443
vt 0.194707 0.088408
vt 0.156959 0.172063
vt 0.156514 0.172034
vt 0.154601 0.162976
vt 0.155467 0.162611
vt 0.155441 0.172224
vt 0.152216 0.163426
vt 0.151029 0.137454
vt 0.154275 0.136979
vt 0.151114 0.176186
vt 0.145261 0.166971
vt 0.147547 0.138608
vt 0.150845 0.130170
vt 0.154595 0.129587
vt 0.142941 0.167978
vt 0.150068 0.177405
vt 0.135624 0.142401
vt 0.146908 0.131389
vt 0.140199 0.087699
vt 0.144989 0.088690
vt 0.132472 0.142901
vt 0.141996 0.168308
vt 0.149691 0.178189
vt 0.132934 0.135704
vt 0.135819 0.089046
vt 0.129304 0.135945
vt 0.129509 0.143308
vt 0.119621 0.093216
vt 0.132227 0.081118
vt 0.135380 0.079153
vt 0.115083 0.093781
vt 0.125776 0.136199
vt 0.118538 0.084280
vt 0.114740 0.084166
vt 0.110261 0.095870
vt 0.143626 0.030353
vt 0.105454 0.086150
vt 0.143873 0.039953
vt 0.131294 0.039998
vt 0.196132 0.029965
vt 0.147436 0.070601
vt 0.135128 0.070783
vt 0.195889 0.039553
vt 0.149615 0.080413
vt 0.144261 0.077622
vt 0.192122 0.070109
vt 0.206484 0.039590
vt 0.189634 0.080100
vt 0.202754 0.070307
vt 0.151187 0.180330
vt 0.156960 0.183895
vt 0.152749 0.184354
vt 0.160581 0.202164
vt 0.156474 0.202626
vt 0.138040 0.186681
vt 0.157342 0.206810
vt 0.157295 0.208995
vt 0.138462 0.204862
vt 0.134715 0.183168
vt 0.131248 0.187434
vt 0.139040 0.211225
vt 0.131779 0.205618
vt 0.135315 0.209477
vt 0.196864 0.130989
vt 0.198009 0.086831
vt 0.193749 0.077033
vt 0.192245 0.140969
vt 0.165646 0.165211
vt 0.164584 0.173597
vt 0.070713 0.096923
vt 0.200991 0.033357
vt 0.101713 0.089360
vt 0.136724 0.033759
vt 0.067465 0.096047
vn 0.031600 -0.468251 0.883030
vn 0.303249 -0.662398 0.685032
vn 0.390127 -0.087542 0.916590
vn 0.039789 -0.035168 0.998589
vn -0.000000 1.000000 0.000000
vn 0.000003 1.000000 0.000000
vn 0.000002 1.000000 0.000000
vn -0.000000 1.000000 0.000000
vn 0.039789 -0.035168 -0.998589
vn 0.390126 -0.087542 -0.916590
vn 0.303250 -0.662398 -0.685032
vn 0.031600 -0.468251 -0.883030
vn 0.000000 -1.000000 0.000000
vn 0.000000 -1.000000 0.000000
vn 0.000000 -1.000000 0.000001
vn 0.000000 -1.000000 0.000000
vn 0.456287 -0.766309 0.452297
vn 0.581671 -0.810970 0.063140
vn 0.980655 -0.103904 0.165888
vn 0.693012 -0.090348 0.715242
vn -0.581671 -0.810970 0.063140
vn -0.456287 -0.766309 0.452297
vn -0.693012 -0.090348 0.715242
vn -0.980655 -0.103904 0.165888
vn -0.765048 0.635009 0.107076
vn -0.619678 0.541094 0.568521
vn -0.762656 -0.011190 0.646708
vn -0.985783 0.014150 0.167424
vn 0.090755 -0.049809 -0.994627
vn 0.985017 0.009269 -0.172208
vn 0.658147 0.197187 -0.726608
vn 0.065578 0.169932 -0.983271
vn 0.691703 0.199084 0.694200
vn 0.971128 0.199708 0.130490
vn 0.980056 0.012747 0.198315
vn 0.703304 -0.015062 0.710729
vn 0.065578 0.169932 0.983271
vn 0.658147 0.197187 0.726609
vn 0.985017 0.009269 0.172208
vn 0.090755 -0.049809 0.994627
vn -0.724570 0.679211 0.116922
vn -0.572637 0.607669 0.550295
vn 0.510504 0.221082 -0.830969
vn 0.043540 0.213333 -0.976009
vn 0.688053 0.223164 0.690493
vn 0.963734 0.199625 0.177106
vn 0.043540 0.213333 0.976009
vn 0.510504 0.221082 0.830968
vn -0.694253 0.065821 0.716715
vn -0.983088 0.076748 0.166278
vn 0.037057 0.033205 -0.998761
vn 0.391444 0.031933 -0.919648
vn 0.985345 0.012685 0.170099
vn 0.695489 0.015695 0.718365
vn 0.391444 0.031933 0.919648
vn 0.037057 0.033205 0.998761
vn -0.718472 0.066282 -0.692391
vn -0.983361 0.077278 -0.164408
vn -0.724597 0.679386 -0.115732
vn -0.586909 0.614979 -0.526629
vn -0.717181 -0.090573 -0.690976
vn -0.980854 -0.104991 -0.164018
vn -0.467274 -0.771174 -0.432373
vn -0.582042 -0.810751 -0.062528
vn 0.000000 -1.000000 -0.000000
vn 0.000000 -1.000000 -0.000002
vn 0.000000 -1.000000 -0.000000
vn 0.000000 -1.000000 -0.000000
vn 0.980854 -0.104991 -0.164018
vn 0.582042 -0.810751 -0.062528
vn 0.467274 -0.771174 -0.432372
vn 0.717181 -0.090573 -0.690976
vn 0.985699 0.012608 -0.168044
vn 0.719798 0.015188 -0.694018
vn 0.964219 0.199427 -0.174675
vn 0.711686 0.221390 -0.666701
vn 0.971339 0.199225 -0.129654
vn 0.715038 0.199975 -0.669874
vn 0.980658 0.012941 -0.195299
vn 0.727355 -0.013309 -0.686133
vn 0.000000 1.000000 -0.000000
vn 0.000002 1.000000 -0.000000
vn 0.000003 1.000000 -0.000001
vn -0.000000 1.000000 -0.000000
vn -0.634252 0.550084 -0.543260
vn -0.765579 0.634574 -0.105850
vn -0.986217 0.014313 -0.164837
vn -0.784054 -0.009451 -0.620621
vn -0.516042 -0.108350 0.849683
vn -0.040684 -0.033967 0.998595
vn -0.040436 0.027735 0.998797
vn -0.517458 0.071863 0.852685
vn -0.375265 -0.711330 0.594295
vn -0.033995 -0.471422 0.881252
vn 0.000000 -1.000000 0.000000
vn 0.000000 -1.000000 0.000000
vn 0.000000 -1.000000 0.000000
vn 0.000000 -1.000000 0.000000
vn 0.000000 -1.000000 0.000000
vn 0.000000 -1.000000 0.000000
vn 0.000000 -1.000000 0.000000
vn 0.000000 -1.000000 0.000000
vn -0.516042 -0.108350 -0.849683
vn -0.040684 -0.033967 -0.998595
vn -0.033995 -0.471422 -0.881252
vn -0.375265 -0.711330 -0.594295
vn -0.517458 0.071863 -0.852686
vn -0.040435 0.027735 -0.998797
vn -0.441835 0.530661 -0.723312
vn -0.056768 0.265123 -0.962542
vn -0.458514 0.453941 -0.764004
vn -0.039388 0.194010 -0.980209
vn -0.498747 -0.033329 -0.866107
vn -0.080066 -0.049686 -0.995550
vn 0.000000 1.000000 0.000000
vn -0.000000 1.000000 0.000000
vn -0.000000 1.000000 0.000000
vn 0.000000 1.000000 0.000001
vn 0.000000 1.000000 -0.000000
vn -0.000000 1.000000 -0.000000
vn 0.000000 1.000000 -0.000001
vn -0.000000 1.000000 -0.000000
vn -0.458514 0.453941 0.764005
vn -0.039388 0.194010 0.980209
vn -0.080066 -0.049686 0.995551
vn -0.498746 -0.033329 0.866107
vn -0.441835 0.530661 0.723312
vn -0.056768 0.265123 0.962542
s 1
g Aceite
usemtl initialShadingGroup
f 67/105/1 2/70/2 20/64/3 66/68/4
s 2
f 78/56/5 4/83/6 46/84/7 77/85/8
s 3
f 71/53/9 19/52/10 8/78/11 70/77/12
s 4
f 68/71/13 41/72/14 2/106/15 67/69/16
s 5
f 2/67/17 41/66/18 42/61/19 20/64/20
s 6
f 40/27/21 1/28/22 17/20/23 39/19/24
f 48/1/25 9/2/26 3/3/27 47/4/28
s 3
f 75/35/29 6/36/30 11/37/31 74/38/32
s 5
f 12/48/33 45/44/34 46/43/35 4/49/36
s 1
f 79/55/37 12/48/38 4/49/39 78/56/40
s 6
f 48/1/25 37/5/41 13/6/42 9/2/26
s 3
f 74/38/32 11/37/31 15/41/43 73/42/44
s 5
f 16/54/45 44/50/46 45/44/34 12/48/33
s 1
f 80/60/47 16/54/48 12/48/38 79/55/37
s 6
f 39/19/24 17/20/23 22/13/49 38/12/50
s 3
f 72/47/51 24/46/52 19/52/10 71/53/9
s 5
f 20/64/20 42/61/19 43/57/53 21/59/54
s 1
f 66/68/4 20/64/3 21/59/55 65/65/56
f 80/60/47 65/65/56 21/59/55 16/54/48
s 6
f 38/12/50 22/13/49 13/6/42 37/5/41
s 3
f 73/42/44 15/41/43 24/46/52 72/47/51
s 5
f 21/59/54 43/57/53 44/50/46 16/54/45
s 6
f 23/24/57 26/18/58 25/11/59 14/17/60
f 18/30/61 27/26/62 26/18/58 23/24/57
f 7/33/63 28/32/64 27/26/62 18/30/61
s 4
f 70/77/65 8/78/66 29/75/67 69/74/68
s 5
f 30/58/69 29/62/70 8/63/71 19/52/72
f 31/51/73 30/58/69 19/52/72 24/46/74
f 32/45/75 31/51/73 24/46/74 15/41/76
f 33/40/77 32/45/75 15/41/76 11/37/78
f 34/39/79 33/40/77 11/37/78 6/36/80
s 2
f 76/87/81 34/86/82 6/89/83 75/90/84
s 6
f 10/15/85 36/9/86 35/10/87 5/16/88
f 14/17/60 25/11/59 36/9/86 10/15/85
f 26/18/58 38/12/50 37/5/41 25/11/59
f 27/26/62 39/19/24 38/12/50 26/18/58
f 28/32/64 40/27/21 39/19/24 27/26/62
s 4
f 69/74/68 29/75/67 41/72/14 68/71/13
s 5
f 42/61/19 41/66/18 29/62/70 30/58/69
f 43/57/53 42/61/19 30/58/69 31/51/73
f 44/50/46 43/57/53 31/51/73 32/45/75
f 45/44/34 44/50/46 32/45/75 33/40/77
f 46/43/35 45/44/34 33/40/77 34/39/79
s 2
f 77/85/8 46/84/7 34/86/82 76/87/81
s 6
f 36/9/86 48/1/25 47/4/28 35/10/87
f 36/9/86 25/11/59 37/5/41 48/1/25
s 1
f 17/20/89 50/29/90 49/21/91 22/13/92
f 1/107/93 51/103/94 50/29/90 17/20/89
s 4
f 40/80/95 52/76/96 51/73/97 1/104/98
f 28/82/99 53/79/100 52/76/96 40/80/95
f 7/99/101 54/81/102 53/79/100 28/82/99
s 3
f 18/98/103 55/34/104 54/81/105 7/99/106
f 23/97/107 56/31/108 55/34/104 18/98/103
f 14/100/109 57/25/110 56/31/108 23/97/107
f 10/101/111 58/23/112 57/25/110 14/100/109
f 5/102/113 59/22/114 58/23/112 10/101/111
s 2
f 35/95/115 60/91/116 59/94/117 5/96/118
f 47/93/119 61/88/120 60/91/116 35/95/115
f 3/92/121 62/8/122 61/88/120 47/93/119
s 1
f 9/2/123 63/7/124 62/8/125 3/3/126
f 13/6/127 64/14/128 63/7/124 9/2/123
f 22/13/92 49/21/91 64/14/128 13/6/127
f 50/29/90 66/68/4 65/65/56 49/21/91
f 51/103/94 67/105/1 66/68/4 50/29/90
s 4
f 52/76/96 68/71/13 67/69/16 51/73/97
f 53/79/100 69/74/68 68/71/13 52/76/96
f 54/81/102 70/77/65 69/74/68 53/79/100
s 3
f 55/34/104 71/53/9 70/77/12 54/81/105
f 56/31/108 72/47/51 71/53/9 55/34/104
f 57/25/110 73/42/44 72/47/51 56/31/108
f 58/23/112 74/38/32 73/42/44 57/25/110
f 59/22/114 75/35/29 74/38/32 58/23/112
s 2
f 60/91/116 76/87/81 75/90/84 59/94/117
f 61/88/120 77/85/8 76/87/81 60/91/116
f 62/8/122 78/56/5 77/85/8 61/88/120
s 1
f 63/7/124 79/55/37 78/56/40 62/8/125
f 64/14/128 80/60/47 79/55/37 63/7/124
f 64/14/128 49/21/91 65/65/56 80/60/47
