# This file uses meters as units for non-parametric coordinates.

mtllib Alarma.mtl
g default
v 162.888247 220.629933 4768.941244
v 167.883327 220.629933 4772.263748
v 176.200912 220.629933 4772.263748
v 181.195992 220.629933 4768.941244
v 161.340220 250.670886 4770.489253
v 167.180028 250.670886 4774.373627
v 176.904211 250.670886 4774.373627
v 182.744019 250.670886 4770.489253
v 157.455864 250.670886 4764.649480
v 186.628375 250.670886 4764.649480
v 157.455864 250.670886 4754.925262
v 186.628375 250.670886 4754.925262
v 161.340220 250.670886 4749.085490
v 167.180028 250.670886 4745.201116
v 176.904211 250.670886 4745.201116
v 182.744019 250.670886 4749.085490
v 162.888247 220.629933 4750.633499
v 167.883327 220.629933 4747.310995
v 176.200912 220.629933 4747.310995
v 181.195992 220.629933 4750.633499
v 159.565761 220.629933 4755.628579
v 167.180028 215.058965 4754.925262
v 176.904211 215.058965 4754.925262
v 184.518478 220.629933 4755.628579
v 159.565761 220.629933 4763.946164
v 167.180028 215.058965 4764.649480
v 176.904211 215.058965 4764.649480
v 184.518478 220.629933 4763.946164
v 186.628375 234.663544 4764.649480
v 182.744019 234.663544 4770.489253
v 176.904211 234.663544 4774.373627
v 167.180028 234.663544 4774.373627
v 161.340220 234.663544 4770.489253
v 157.455864 234.663544 4764.649480
v 157.455864 234.663544 4754.925262
v 161.340220 234.663544 4749.085490
v 167.180028 234.663544 4745.201116
v 176.904211 234.663544 4745.201116
v 182.744019 234.663544 4749.085490
v 186.628375 234.663544 4754.925262
vt 0.366140 0.898027
vt 0.378410 0.898027
vt 0.395253 0.898027
vt 0.407530 0.898027
vt 0.366116 0.952761
vt 0.378304 0.952761
vt 0.395225 0.952761
vt 0.407391 0.952761
vt 0.324799 0.952761
vt 0.312665 0.952761
vt 0.296019 0.952761
vt 0.284368 0.952761
vt 0.324834 0.898027
vt 0.312043 0.898027
vt 0.295734 0.898027
vt 0.282977 0.898027
vt 0.335026 0.879783
vt 0.313355 0.879783
vt 0.294439 0.879783
vt 0.272760 0.879783
vt 0.335092 0.861538
vt 0.313352 0.861538
vt 0.294453 0.861538
vt 0.272703 0.861538
vt 0.325121 0.843293
vt 0.311618 0.843293
vt 0.296222 0.843293
vt 0.282694 0.843293
vt 0.448795 0.898027
vt 0.436624 0.898027
vt 0.419803 0.898027
vt 0.447743 0.952761
vt 0.436112 0.952761
vt 0.419495 0.952761
vt 0.337056 0.898027
vt 0.353879 0.898027
vt 0.336988 0.952761
vt 0.353925 0.952761
vt 0.419746 0.926918
vt 0.407518 0.926918
vt 0.395315 0.926918
vt 0.378327 0.926918
vt 0.366129 0.926918
vt 0.353929 0.926918
vt 0.336927 0.926918
vt 0.324685 0.926918
vt 0.312387 0.926918
vt 0.295261 0.926918
vt 0.282683 0.926918
vt 0.449439 0.926918
vt 0.436888 0.926918
vn -0.661229 -0.354332 0.661231
vn -0.214935 -0.414168 0.884459
vn -0.241909 -0.069543 0.967804
vn -0.705417 -0.069050 0.705421
vn 0.214935 -0.414168 0.884459
vn 0.241909 -0.069543 0.967804
vn 0.661229 -0.354332 0.661231
vn 0.705417 -0.069050 0.705421
vn -0.705417 -0.069050 -0.705421
vn -0.241906 -0.069543 -0.967804
vn -0.214935 -0.414168 -0.884459
vn -0.661228 -0.354332 -0.661231
vn 0.241906 -0.069544 -0.967804
vn 0.214935 -0.414168 -0.884459
vn 0.705417 -0.069050 -0.705421
vn 0.661229 -0.354332 -0.661231
vn -0.247653 -0.936663 -0.247651
vn -0.884459 -0.414168 -0.214935
vn 0.247653 -0.936663 -0.247651
vn 0.884459 -0.414168 -0.214935
vn -0.247653 -0.936663 0.247651
vn -0.884459 -0.414168 0.214935
vn 0.247653 -0.936663 0.247651
vn 0.884459 -0.414168 0.214935
vn 0.967804 -0.069544 -0.241907
vn 0.967804 -0.069544 0.241908
vn -0.967804 -0.069544 -0.241907
vn -0.967804 -0.069544 0.241908
vn 0.970240 0.000000 0.242146
vn 0.707105 0.000000 0.707109
vn 0.242148 0.000000 0.970239
vn -0.242148 0.000000 0.970239
vn -0.707105 0.000000 0.707109
vn -0.970240 0.000000 0.242146
vn -0.970240 0.000000 -0.242145
vn -0.707105 0.000000 -0.707109
vn -0.242143 0.000000 -0.970241
vn 0.242143 0.000000 -0.970241
vn 0.707105 0.000000 -0.707109
vn 0.970240 0.000000 -0.242145
s 1
g pCube15 Alarma
usemtl lambert8SG
f 1/1/1 2/2/2 32/42/3 33/43/4
f 2/2/2 3/3/5 31/41/6 32/42/3
f 3/3/5 4/4/7 30/40/8 31/41/6
f 36/46/9 37/47/10 18/14/11 17/13/12
f 37/47/10 38/48/13 19/15/14 18/14/11
f 38/48/13 39/49/15 20/16/16 19/15/14
f 17/13/12 18/14/11 22/18/17 21/17/18
f 18/14/11 19/15/14 23/19/19 22/18/17
f 19/15/14 20/16/16 24/20/20 23/19/19
f 21/17/18 22/18/17 26/22/21 25/21/22
f 22/18/17 23/19/19 27/23/23 26/22/21
f 23/19/19 24/20/20 28/24/24 27/23/23
f 25/21/22 26/22/21 2/26/2 1/25/1
f 26/22/21 27/23/23 3/27/5 2/26/2
f 27/23/23 28/24/24 4/28/7 3/27/5
f 24/30/20 20/29/16 39/50/15 40/51/25
f 28/31/24 24/30/20 40/51/25 29/39/26
f 4/4/7 28/31/24 29/39/26 30/40/8
f 17/13/12 21/35/18 35/45/27 36/46/9
f 21/35/18 25/36/22 34/44/28 35/45/27
f 25/36/22 1/1/1 33/43/4 34/44/28
f 30/40/8 29/39/26 10/34/29 8/8/30
f 31/41/6 30/40/8 8/8/30 7/7/31
f 32/42/3 31/41/6 7/7/31 6/6/32
f 33/43/4 32/42/3 6/6/32 5/5/33
f 34/44/28 33/43/4 5/5/33 9/38/34
f 35/45/27 34/44/28 9/38/34 11/37/35
f 36/46/9 35/45/27 11/37/35 13/9/36
f 13/9/36 14/10/37 37/47/10 36/46/9
f 14/10/37 15/11/38 38/48/13 37/47/10
f 15/11/38 16/12/39 39/49/15 38/48/13
f 40/51/25 39/50/15 16/32/39 12/33/40
f 29/39/26 40/51/25 12/33/40 10/34/29
g default
v 171.568476 234.793328 4764.024360
v 172.033943 234.793328 4764.024360
v 172.499410 234.793328 4764.024360
v 171.568476 250.632792 4764.024360
v 172.033943 250.632792 4764.024360
v 172.499410 250.632792 4764.024360
v 169.082789 250.632792 4759.847453
v 170.013724 250.632792 4759.847453
v 171.568476 250.632792 4755.670546
v 172.033943 250.632792 4755.670546
v 172.499410 250.632792 4755.670546
v 171.568476 234.793328 4755.670546
v 172.033943 234.793328 4755.670546
v 172.499410 234.793328 4755.670546
v 169.082789 232.875532 4759.847453
v 169.548257 232.875532 4759.847453
v 170.013724 232.875532 4759.847453
v 171.322742 250.632792 4762.047116
v 170.391807 250.632792 4762.047116
v 170.391807 233.846268 4762.047116
v 170.857274 233.846268 4762.047116
v 171.322742 233.846268 4762.047116
v 171.475910 250.632792 4757.390406
v 170.544975 250.632792 4757.390406
v 170.544975 233.240900 4757.390406
v 171.010442 233.240900 4757.390406
v 171.475910 233.240900 4757.390406
v 171.322742 242.771218 4764.212137
v 172.499410 242.771218 4768.135545
v 172.033943 242.771218 4768.135545
v 171.568476 242.771218 4768.135545
v 170.391807 242.771218 4764.212137
v 169.082789 242.771218 4759.847453
v 170.544975 242.771218 4754.972048
v 171.568476 242.771218 4751.559361
v 172.033943 242.771218 4751.559361
v 172.499410 242.771218 4751.559361
v 171.475910 242.771218 4754.972048
v 170.013724 242.771218 4759.847453
v 171.322742 246.866693 4763.473979
v 172.499410 246.866693 4766.733773
v 172.033943 246.866693 4766.733773
v 171.568476 246.866693 4766.733773
v 170.391807 246.866693 4763.473979
v 169.082789 246.866693 4759.847453
v 170.544975 246.866693 4755.796648
v 171.568476 246.866693 4752.961133
v 172.033943 246.866693 4752.961133
v 172.499410 246.866693 4752.961133
v 171.475910 246.866693 4755.796648
v 170.013724 246.866693 4759.847453
v 171.322742 237.547817 4763.473979
v 172.499410 237.547817 4766.733773
v 172.033943 237.547817 4766.733773
v 171.568476 237.547817 4766.733773
v 170.391807 237.547817 4763.473979
v 169.082789 237.547817 4759.847453
v 170.544975 237.547817 4755.796648
v 171.568476 237.547817 4752.961133
v 172.033943 237.547817 4752.961133
v 172.499410 237.547817 4752.961133
v 171.475910 237.547817 4755.796648
v 170.013724 237.547817 4759.847453
vt 0.172355 0.437417
vt 0.176565 0.446691
vt 0.179726 0.446691
vt 0.170630 0.513259
vt 0.173510 0.513259
vt 0.176386 0.513259
vt 0.123942 0.513259
vt 0.122115 0.513259
vt 0.120448 0.513259
vt 0.125929 0.446740
vt 0.124134 0.446691
vt 0.122604 0.446691
vt 0.141620 0.446742
vt 0.141227 0.444969
vt 0.140696 0.443155
vt 0.173031 0.426408
vt 0.172966 0.424672
vt 0.217417 0.446691
vt 0.201009 0.446691
vt 0.221403 0.513259
vt 0.200883 0.513259
vt 0.145753 0.513259
vt 0.189095 0.513259
vt 0.157792 0.513259
vt 0.152074 0.441797
vt 0.152439 0.435153
vt 0.152535 0.433408
vt 0.192360 0.446691
vt 0.213127 0.513259
vt 0.133031 0.513259
vt 0.133880 0.446641
vt 0.133106 0.444914
vt 0.132346 0.443259
vt 0.209145 0.446691
vt 0.186067 0.480219
vt 0.174837 0.480219
vt 0.173788 0.480219
vt 0.172738 0.480219
vt 0.161337 0.480219
vt 0.144507 0.480219
vt 0.124720 0.480219
vt 0.111125 0.480219
vt 0.109389 0.480219
vt 0.107562 0.480219
vt 0.237061 0.480219
vt 0.222314 0.480219
vt 0.202323 0.480219
vt 0.186438 0.497431
vt 0.175090 0.497431
vt 0.173626 0.497431
vt 0.172151 0.497431
vt 0.160658 0.497431
vt 0.145082 0.497431
vt 0.127420 0.497431
vt 0.115614 0.497431
vt 0.113950 0.497431
vt 0.112253 0.497431
vt 0.231730 0.497431
vt 0.219328 0.497431
vt 0.201726 0.497431
vt 0.186920 0.458267
vt 0.175671 0.458267
vt 0.174271 0.458267
vt 0.172851 0.458267
vt 0.161148 0.458267
vt 0.144521 0.458267
vt 0.127928 0.458267
vt 0.116389 0.458267
vt 0.114800 0.458267
vt 0.113148 0.458267
vt 0.230324 0.458267
vt 0.217647 0.458267
vt 0.201446 0.458267
vt 0.125218 0.445651
vt 0.124440 0.444618
vn -0.689167 -0.488202 0.535451
vn 0.000000 -0.784756 0.619805
vn 0.000000 -0.458078 0.888912
vn -0.873205 -0.182503 0.451890
vn 0.935339 0.148805 -0.320933
vn 0.971899 0.061091 -0.227332
vn -0.857926 -0.194419 -0.475567
vn 0.000000 -0.458078 -0.888912
vn 0.000000 -0.716939 -0.697136
vn -0.635709 -0.477530 -0.606498
vn 0.973742 0.056194 0.220610
vn 0.927582 0.142051 0.345561
vn -0.868601 -0.230836 -0.438459
vn 0.000000 -0.908785 -0.417264
vn 0.000000 -0.991656 0.128916
vn -0.995416 -0.084684 -0.044457
vn 0.919927 0.072379 0.385350
vn 0.994426 -0.082155 0.066091
vn -0.860392 -0.235216 0.452105
vn 0.000000 -0.908787 0.417260
vn 0.915234 0.067808 -0.397175
vn 0.930897 0.079276 0.356577
vn 0.998625 0.045117 0.026687
vn 0.932411 0.081620 -0.352063
vn -0.998625 -0.045118 -0.026687
vn -0.930897 -0.079277 -0.356576
vn -0.932411 -0.081619 0.352063
vn 0.981754 0.000280 -0.190155
vn 0.950301 -0.000044 -0.311334
vn 0.931893 -0.092418 -0.350763
vn 0.973543 -0.066922 -0.218483
vn 0.000000 0.000000 1.000000
vn 0.000000 0.463409 0.886145
vn -0.907955 -0.000259 0.419068
vn -0.868833 0.195606 0.454827
vn -0.950301 0.000044 0.311334
vn -0.931893 0.092416 0.350763
vn -0.999836 0.000000 -0.018105
vn -0.998273 0.054945 -0.020773
vn -0.950300 0.000034 -0.311335
vn -0.931966 0.092308 -0.350599
vn -0.900964 -0.000267 -0.433894
vn -0.858474 0.208408 -0.468604
vn 0.000000 0.463409 -0.886145
vn 0.000000 0.000000 -1.000000
vn 0.978333 -0.061598 0.197660
vn 0.985256 0.000293 0.171084
vn 0.931966 -0.092305 0.350599
vn 0.950300 -0.000034 0.311335
vn 0.999836 -0.000001 0.018105
vn 0.998273 -0.054944 0.020772
vn 0.902581 -0.144413 -0.405577
vn 0.956899 -0.117771 -0.265471
vn 0.000000 0.583998 0.811755
vn -0.810245 0.300158 0.503396
vn -0.902581 0.144412 0.405577
vn -0.995636 0.089985 -0.024728
vn -0.902592 0.144316 -0.405587
vn -0.796134 0.317580 -0.515086
vn 0.000000 0.583998 -0.811755
vn 0.963831 -0.110374 0.242583
vn 0.902592 -0.144314 0.405587
vn 0.995636 -0.089981 0.024728
s 1
g Alarma Rotar
usemtl lambert9SG
f 41/52/41 42/53/42 94/114/43 95/115/44
f 42/53/42 43/54/45 93/113/46 94/114/43
f 99/119/47 100/120/48 53/62/49 52/61/50
f 100/120/48 101/121/51 54/63/52 53/62/49
f 65/82/53 66/83/54 56/65/55 55/64/56
f 66/83/54 67/84/57 57/66/58 56/65/55
f 60/76/59 61/77/60 42/67/42 41/52/41
f 61/77/60 62/78/61 43/68/45 42/67/42
f 57/70/58 67/85/57 102/123/62 103/124/63
f 43/54/45 62/79/61 92/112/64 93/113/46
f 65/82/53 55/64/56 97/117/65 98/118/66
f 60/76/59 41/52/41 95/115/44 96/116/67
f 55/64/56 60/76/59 96/116/67 97/117/65
f 55/64/56 56/65/55 61/77/60 60/76/59
f 56/65/55 57/66/58 62/78/61 61/77/60
f 103/124/63 92/112/64 62/79/61 57/70/58
f 52/61/50 65/82/53 98/118/66 99/119/47
f 52/61/50 53/125/49 66/83/54 65/82/53
f 53/125/49 54/126/52 67/84/57 66/83/54
f 102/123/62 67/85/57 54/69/52 101/122/51
f 69/87/68 68/86/69 80/99/70 81/100/71
f 70/88/72 69/87/68 81/100/71 82/101/73
f 71/89/74 70/88/72 82/101/73 83/102/75
f 72/90/76 71/89/74 83/102/75 84/103/77
f 73/91/78 72/90/76 84/103/77 85/104/79
f 74/92/80 73/91/78 85/104/79 86/105/81
f 75/93/82 74/92/80 86/105/81 87/106/83
f 87/106/83 88/107/84 76/94/85 75/93/82
f 88/107/84 89/108/86 77/95/87 76/94/85
f 90/110/88 78/97/89 77/96/87 89/109/86
f 79/98/90 78/97/89 90/110/88 91/111/91
f 91/111/91 80/99/70 68/86/69 79/98/90
f 81/100/71 80/99/70 58/74/92 46/57/93
f 82/101/73 81/100/71 46/57/93 45/56/94
f 83/102/75 82/101/73 45/56/94 44/55/95
f 84/103/77 83/102/75 44/55/95 59/75/96
f 85/104/79 84/103/77 59/75/96 47/73/97
f 86/105/81 85/104/79 47/73/97 64/81/98
f 87/106/83 86/105/81 64/81/98 49/58/99
f 49/58/99 50/59/100 88/107/84 87/106/83
f 50/59/100 51/60/101 89/108/86 88/107/84
f 63/80/102 90/110/88 89/109/86 51/71/101
f 91/111/91 90/110/88 63/80/102 48/72/103
f 58/74/92 80/99/70 91/111/91 48/72/103
f 93/113/46 92/112/64 68/86/69 69/87/68
f 94/114/43 93/113/46 69/87/68 70/88/72
f 95/115/44 94/114/43 70/88/72 71/89/74
f 96/116/67 95/115/44 71/89/74 72/90/76
f 97/117/65 96/116/67 72/90/76 73/91/78
f 98/118/66 97/117/65 73/91/78 74/92/80
f 99/119/47 98/118/66 74/92/80 75/93/82
f 75/93/82 76/94/85 100/120/48 99/119/47
f 76/94/85 77/95/87 101/121/51 100/120/48
f 78/97/89 102/123/62 101/122/51 77/96/87
f 103/124/63 102/123/62 78/97/89 79/98/90
f 79/98/90 68/86/69 92/112/64 103/124/63
