# This file uses meters as units for non-parametric coordinates.

mtllib Bateria.mtl
g default
v -350.362290 33.179573 5191.222558
v -322.778064 33.179573 5191.222558
v -350.362290 50.042459 5191.222558
v -322.778064 50.042459 5191.222558
v -350.362290 50.042459 5174.894897
v -322.778064 50.042459 5174.894897
v -350.362290 33.179573 5174.894897
v -322.778064 33.179573 5174.894897
v -350.362290 47.837060 5191.222558
v -350.362290 47.837060 5174.894897
v -322.778064 47.837060 5174.894897
v -322.778064 47.837060 5191.222558
v -351.462292 47.837060 5192.322443
v -351.462292 47.837060 5173.795012
v -351.462292 50.042459 5192.322443
v -351.462292 50.042459 5173.795012
v -321.678061 50.042459 5173.795012
v -321.678061 47.837060 5173.795012
v -321.678061 47.837060 5192.322443
v -321.678061 50.042459 5192.322443
vt 0.583571 0.095949
vt 0.749792 0.026633
vt 0.650081 0.095640
vt 0.749710 0.095640
vt 0.650572 0.156942
vt 0.753389 0.156942
vt 0.651496 0.226359
vt 0.752390 0.226359
vt 0.651707 0.285374
vt 0.752111 0.285374
vt 0.819671 0.147247
vt 0.582833 0.152494
vt 0.650061 0.079687
vt 0.632987 0.152494
vt 0.650878 0.172840
vt 0.753054 0.172840
vt 0.769544 0.147247
vt 0.765439 0.089992
vt 0.637008 0.164341
vt 0.646094 0.083669
vt 0.646102 0.091738
vt 0.646175 0.164341
vt 0.646571 0.160872
vt 0.757381 0.160872
vt 0.757213 0.168871
vt 0.646727 0.168871
vt 0.753710 0.083669
vt 0.766029 0.155401
vt 0.757985 0.155401
vt 0.753693 0.091738
vt 0.638884 0.094958
vt 0.646233 0.094958
vt 0.634956 0.095949
vt 0.650056 0.026633
vt 0.761113 0.088492
vt 0.753215 0.088492
vt 0.749742 0.079687
vt 0.818107 0.089992
vn 0.000000 0.000000 1.000000
vn 0.000000 0.000000 1.000000
vn 0.000000 0.000000 1.000000
vn 0.000000 0.000000 1.000000
vn 0.000000 1.000000 0.000000
vn 0.000000 1.000000 0.000000
vn 0.000000 1.000000 -0.000000
vn 0.000000 1.000000 -0.000000
vn 0.000000 0.000000 -1.000000
vn 0.000000 0.000000 -1.000000
vn 0.000000 0.000000 -1.000000
vn 0.000000 0.000000 -1.000000
vn 0.000000 -1.000000 0.000000
vn 0.000000 -1.000000 0.000000
vn 0.000000 -1.000000 0.000000
vn 0.000000 -1.000000 0.000000
vn 1.000000 0.000000 0.000000
vn 1.000000 0.000000 0.000000
vn 1.000000 0.000000 0.000000
vn 1.000000 0.000000 0.000000
vn -1.000000 0.000000 0.000000
vn -1.000000 0.000000 0.000000
vn -1.000000 0.000000 0.000000
vn -1.000000 0.000000 0.000000
vn -1.000000 0.000000 0.000000
vn -1.000000 0.000000 0.000000
vn -1.000000 0.000000 0.000000
vn -1.000000 0.000000 0.000000
vn 0.000000 0.000000 -1.000000
vn 0.000000 0.000000 -1.000000
vn 0.000000 0.000000 -1.000000
vn 0.000000 0.000000 -1.000000
vn 1.000000 0.000000 0.000000
vn 1.000000 0.000000 0.000000
vn 1.000000 0.000000 0.000000
vn 1.000000 0.000000 0.000000
vn 0.000000 0.000000 1.000000
vn 0.000000 0.000000 1.000000
vn 0.000000 0.000000 1.000000
vn 0.000000 0.000000 1.000000
vn 0.000000 -1.000000 -0.000000
vn 0.000000 -1.000000 0.000000
vn 0.000000 -1.000000 0.000000
vn 0.000000 -1.000000 -0.000000
vn 0.000000 1.000000 -0.000000
vn 0.000000 1.000000 0.000000
vn 0.000000 1.000000 -0.000000
vn 0.000000 -1.000000 -0.000000
vn 0.000000 -1.000000 -0.000000
vn 0.000000 -1.000000 0.000000
vn 0.000000 -1.000000 0.000000
vn 0.000000 1.000000 0.000000
s off
g pCube49 Bateria
usemtl initialShadingGroup
f 1/34/1 2/2/2 12/37/3 9/13/4
s 1
f 3/3/5 4/4/6 6/6/7 5/5/8
s off
f 10/15/9 11/16/10 8/8/11 7/7/12
f 7/7/13 8/8/14 2/10/15 1/9/16
f 2/38/17 8/11/18 11/17/19 12/18/20
f 7/12/21 1/1/22 9/33/23 10/14/24
f 14/19/25 13/31/26 15/32/27 16/22/28
f 16/23/29 17/24/30 18/25/31 14/26/32
f 19/35/33 18/28/34 17/29/35 20/36/36
f 13/20/37 19/27/38 20/30/39 15/21/40
s 2
f 10/14/41 9/33/42 13/31/43 14/19/44
s 1
f 3/3/5 5/5/8 16/22/45 15/32/46
f 5/5/8 6/6/7 17/24/47 16/23/45
s 2
f 11/16/48 10/15/41 14/26/44 18/25/49
f 12/18/50 11/17/48 18/28/49 19/35/51
s 1
f 6/6/7 4/4/6 20/36/52 17/29/47
s 2
f 9/13/42 12/37/50 19/27/51 13/20/43
s 1
f 4/4/6 3/3/5 15/21/46 20/30/52
g default
v -329.605867 49.756644 5187.780818
v -327.937914 49.756644 5188.658388
v -326.269961 49.756644 5187.780818
v -329.170724 52.222264 5187.341628
v -327.937914 52.222264 5187.932919
v -326.705104 52.222264 5187.341628
v -329.572514 52.222264 5186.434502
v -327.937914 53.540776 5186.434502
v -326.303314 52.222264 5186.434502
v -329.170724 52.222264 5185.527377
v -327.937914 52.222264 5184.936086
v -326.705104 52.222264 5185.527377
v -329.605867 49.756644 5185.088187
v -327.937914 49.756644 5184.210617
v -326.269961 49.756644 5185.088187
v -330.428433 49.756644 5186.434502
v -325.447395 49.756644 5186.434502
vt 0.282524 0.394217
vt 0.260932 0.394217
vt 0.239021 0.394217
vt 0.317763 0.322990
vt 0.335233 0.322990
vt 0.239222 0.358604
vt 0.309864 0.340797
vt 0.335273 0.340797
vt 0.360553 0.340797
vt 0.316272 0.358604
vt 0.335653 0.358604
vt 0.354055 0.358604
vt 0.316867 0.394217
vt 0.338135 0.394217
vt 0.361811 0.394217
vt 0.200610 0.394217
vt 0.220582 0.394217
vt 0.208678 0.358604
vt 0.223418 0.358604
vt 0.299707 0.394217
vt 0.299855 0.358604
vt 0.261261 0.358604
vt 0.352692 0.322990
vt 0.283504 0.358604
vn -0.438208 0.243056 0.865389
vn 0.000000 0.270400 0.962748
vn 0.000000 0.270400 0.962748
vn -0.438208 0.243056 0.865389
vn 0.438208 0.243056 0.865389
vn 0.438208 0.243056 0.865389
vn -0.445833 0.751461 0.486353
vn 0.000000 0.839512 0.543341
vn 0.000000 1.000000 -0.000000
vn -0.510246 0.860029 0.000000
vn 0.445833 0.751461 0.486353
vn 0.510246 0.860029 0.000000
vn 0.000000 0.839512 -0.543341
vn -0.445833 0.751461 -0.486353
vn 0.445833 0.751461 -0.486353
vn -0.438208 0.243056 -0.865389
vn 0.000000 0.270400 -0.962748
vn 0.000000 0.270400 -0.962748
vn -0.438208 0.243056 -0.865389
vn 0.438208 0.243056 -0.865389
vn 0.438208 0.243056 -0.865389
vn 0.955103 0.296276 0.000000
vn 0.847753 0.262976 -0.460607
vn 0.847753 0.262976 -0.460607
vn 0.955102 0.296276 0.000000
vn 0.847753 0.262976 0.460607
vn 0.847753 0.262976 0.460607
vn -0.847753 0.262976 -0.460607
vn -0.955103 0.296276 0.000000
vn -0.955102 0.296276 0.000000
vn -0.847753 0.262976 -0.460607
vn -0.847753 0.262976 0.460607
vn -0.847753 0.262976 0.460607
s 1
g Bateria pCube51
usemtl initialShadingGroup
f 21/39/53 22/40/54 25/60/55 24/62/56
f 22/40/54 23/41/57 26/44/58 25/60/55
s 2
f 24/42/59 25/43/60 28/46/61 27/45/62
f 25/43/60 26/61/63 29/47/64 28/46/61
f 27/45/62 28/46/61 31/49/65 30/48/66
f 28/46/61 29/47/64 32/50/67 31/49/65
s 3
f 30/48/68 31/49/69 34/52/70 33/51/71
f 31/49/69 32/50/72 35/53/73 34/52/70
s 4
f 37/55/74 35/54/75 32/56/76 29/57/77
f 23/41/78 37/55/74 29/57/77 26/44/79
s 5
f 33/51/80 36/58/81 27/59/82 30/48/83
f 36/58/81 21/39/84 24/62/85 27/59/82
g default
v -347.208826 49.756644 5187.780818
v -345.540874 49.756644 5188.658388
v -343.872921 49.756644 5187.780818
v -346.773683 52.222264 5187.341628
v -345.540874 52.222264 5187.932919
v -344.308064 52.222264 5187.341628
v -347.175474 52.222264 5186.434502
v -345.540874 53.540776 5186.434502
v -343.906274 52.222264 5186.434502
v -346.773683 52.222264 5185.527377
v -345.540874 52.222264 5184.936086
v -344.308064 52.222264 5185.527377
v -347.208826 49.756644 5185.088187
v -345.540874 49.756644 5184.210617
v -343.872921 49.756644 5185.088187
v -348.031393 49.756644 5186.434502
v -343.050355 49.756644 5186.434502
vt 0.489966 0.982375
vt 0.468373 0.982375
vt 0.446463 0.982375
vt 0.525204 0.911148
vt 0.542674 0.911148
vt 0.446663 0.946762
vt 0.517306 0.928955
vt 0.542714 0.928955
vt 0.567995 0.928955
vt 0.523714 0.946762
vt 0.543095 0.946762
vt 0.561496 0.946762
vt 0.524309 0.982375
vt 0.545577 0.982375
vt 0.569252 0.982375
vt 0.408051 0.982375
vt 0.428024 0.982375
vt 0.416119 0.946762
vt 0.430860 0.946762
vt 0.507148 0.982375
vt 0.507296 0.946762
vt 0.468702 0.946762
vt 0.560134 0.911148
vt 0.490946 0.946762
vn -0.438208 0.243056 0.865389
vn 0.000000 0.270400 0.962748
vn 0.000000 0.270400 0.962748
vn -0.438208 0.243056 0.865389
vn 0.438208 0.243056 0.865389
vn 0.438208 0.243056 0.865389
vn -0.445833 0.751461 0.486353
vn 0.000000 0.839512 0.543341
vn 0.000000 1.000000 -0.000000
vn -0.510246 0.860029 0.000000
vn 0.445833 0.751461 0.486353
vn 0.510246 0.860029 0.000000
vn 0.000000 0.839512 -0.543341
vn -0.445833 0.751461 -0.486353
vn 0.445833 0.751461 -0.486353
vn -0.438208 0.243056 -0.865389
vn 0.000000 0.270400 -0.962748
vn 0.000000 0.270400 -0.962748
vn -0.438208 0.243056 -0.865389
vn 0.438208 0.243056 -0.865389
vn 0.438208 0.243056 -0.865389
vn 0.955103 0.296276 0.000000
vn 0.847753 0.262976 -0.460607
vn 0.847753 0.262976 -0.460607
vn 0.955102 0.296276 0.000000
vn 0.847753 0.262976 0.460607
vn 0.847753 0.262976 0.460607
vn -0.847753 0.262976 -0.460607
vn -0.955103 0.296276 0.000000
vn -0.955102 0.296276 0.000000
vn -0.847753 0.262976 -0.460607
vn -0.847753 0.262976 0.460607
vn -0.847753 0.262976 0.460607
s 1
g Bateria pCube50
usemtl initialShadingGroup
f 38/63/86 39/64/87 42/84/88 41/86/89
f 39/64/87 40/65/90 43/68/91 42/84/88
s 2
f 41/66/92 42/67/93 45/70/94 44/69/95
f 42/67/93 43/85/96 46/71/97 45/70/94
f 44/69/95 45/70/94 48/73/98 47/72/99
f 45/70/94 46/71/97 49/74/100 48/73/98
s 3
f 47/72/101 48/73/102 51/76/103 50/75/104
f 48/73/102 49/74/105 52/77/106 51/76/103
s 4
f 54/79/107 52/78/108 49/80/109 46/81/110
f 40/65/111 54/79/107 46/81/110 43/68/112
s 5
f 50/75/113 53/82/114 44/83/115 47/72/116
f 53/82/114 38/63/117 41/86/118 44/83/115
