# This file uses centimeters as units for non-parametric coordinates.

mtllib computer.mtl
g default
v -107.103978 5.378022 -3.920847
v -107.103978 5.436689 -3.920171
v -107.145467 5.407694 -3.949842
v -103.361488 5.407694 -3.949842
v -103.402973 5.436689 -3.920171
v -103.402973 5.378022 -3.920847
v -107.145467 5.467050 -4.007844
v -107.103978 5.496045 -3.978172
v -107.103993 5.496720 -4.036838
v -103.402988 5.496720 -4.036838
v -103.402973 5.496045 -3.978172
v -103.361488 5.467050 -4.007844
v -107.145467 4.059586 -5.448145
v -107.103993 4.089257 -5.477140
v -107.103978 4.030592 -5.477816
v -103.402973 4.030592 -5.477816
v -103.402988 4.089257 -5.477140
v -103.361488 4.059586 -5.448145
v -107.145467 4.000231 -5.390144
v -107.103978 3.971235 -5.419816
v -107.103978 3.970560 -5.361149
v -103.402973 3.970560 -5.361149
v -103.402973 3.971235 -5.419816
v -103.361488 4.000231 -5.390144
vt 0.721407 0.240074
vt 0.721343 0.244273
vt 0.925093 0.243205
vt 0.625199 0.437715
vt 0.925157 0.239006
vt 0.717146 0.244295
vt 0.717018 0.252695
vt 0.721216 0.252673
vt 0.721343 0.244273
vt 0.625199 0.437833
vt 0.721407 0.240074
vt 0.925157 0.239006
vt 0.359198 0.257584
vt 0.925093 0.243205
vt 0.717146 0.244295
vt 0.897126 0.437833
vt 0.721216 0.252673
vt 0.717018 0.252695
vt 0.721152 0.256872
vt 0.897126 0.437715
vt 0.924902 0.255803
vt 0.625199 0.458082
vt 0.924966 0.251604
vt 0.625199 0.447840
vt 0.897126 0.447840
vt 0.721152 0.256872
vt 0.612899 0.257584
vt 0.612899 0.111445
vt 0.359198 0.111445
vt 0.897126 0.458082
vt 0.689000 0.257992
vt 0.689000 0.257874
vt 0.960928 0.257874
vt 0.960928 0.257992
vt 0.689000 0.237625
vt 0.689000 0.247866
vt 0.924966 0.251604
vt 0.924902 0.255803
vt 0.929163 0.251582
vt 0.960928 0.247866
vt 0.929291 0.243183
vt 0.929163 0.251582
vt 0.929291 0.243183
vt 0.960928 0.237625
vn -0.283713 -0.211306 0.935338
vn -0.949217 -0.213564 0.231037
vn -0.949217 -0.235901 0.208180
vn -0.283715 -0.939957 0.189703
vn -0.008707 0.437931 0.898966
vn 0.283719 -0.211293 0.935339
vn 0.008707 0.437930 0.898967
vn -0.008707 0.888628 0.458546
vn -0.949248 0.235832 -0.208112
vn 0.949225 -0.213548 0.231020
vn 0.283720 -0.939958 0.189690
vn 0.949225 -0.235882 0.208164
vn 0.949191 0.235954 -0.208234
vn 0.008707 0.888627 0.458549
vn -0.010867 0.728983 -0.684446
vn -0.010867 0.701074 -0.713006
vn -0.949248 0.213495 -0.230971
vn 0.010867 0.728983 -0.684446
vn 0.949191 0.213620 -0.231089
vn 0.010867 0.701073 -0.713006
vn -0.008707 -0.437930 -0.898967
vn -0.008707 -0.888626 -0.458549
vn 0.008707 -0.437932 -0.898966
vn 0.008707 -0.888626 -0.458549
s 1
g pCube18 group6 group4
usemtl initialShadingGroup
f 1/1/1 3/2/2 19/3/3 21/5/4
f 2/4/5 1/10/1 6/16/6 5/20/7
f 3/2/2 2/6/5 8/7/8 7/8/9
f 4/9/10 6/11/6 22/12/11 24/14/12
f 5/15/7 4/9/10 12/17/13 11/18/14
f 7/8/9 9/19/15 14/21/16 13/23/17
f 9/22/15 8/24/8 11/25/14 10/30/18
f 10/26/18 12/17/13 18/37/19 17/38/20
f 13/23/17 15/39/21 20/41/22 19/3/3
f 15/31/21 14/32/16 17/33/20 16/34/23
f 16/42/23 18/37/19 24/14/12 23/43/24
f 21/35/4 20/36/22 23/40/24 22/44/11
f 2/4/5 5/20/7 11/25/14 8/24/8
f 9/29/15 10/28/18 17/27/20 14/13/16
f 15/31/21 16/34/23 23/40/24 20/36/22
f 4/9/10 24/14/12 18/37/19 12/17/13
f 19/3/3 3/2/2 7/8/9 13/23/17
f 1/1/1 2/6/5 3/2/2
f 4/9/10 5/15/7 6/11/6
f 7/8/9 8/7/8 9/19/15
f 10/26/18 11/18/14 12/17/13
f 13/23/17 14/21/16 15/39/21
f 16/42/23 17/38/20 18/37/19
f 19/3/3 20/41/22 21/5/4
f 22/12/11 23/43/24 24/14/12
g default
v -106.489456 -0.012467 -4.393959
v -106.489456 0.102836 -4.278657
v -106.604761 0.102836 -4.393959
v -103.996643 0.102836 -4.393959
v -104.111947 0.102836 -4.278657
v -104.111947 -0.012467 -4.393959
v -106.604761 0.534593 -4.393959
v -106.604761 0.371532 -4.393959
v -106.489456 0.371532 -4.278657
v -106.489456 0.534593 -4.278657
v -104.111947 0.534593 -4.278657
v -104.111947 0.371532 -4.278657
v -103.996643 0.371532 -4.393959
v -103.996643 0.534593 -4.393959
v -106.489456 0.453062 -5.830148
v -106.489456 0.337760 -5.945450
v -106.604761 0.337760 -5.830148
v -103.996643 0.337760 -5.830148
v -104.111947 0.337760 -5.945450
v -104.111947 0.453062 -5.830148
v -106.604761 0.102836 -5.830148
v -106.489456 0.102836 -5.945450
v -106.489456 -0.012467 -5.830148
v -104.111947 -0.012467 -5.830148
v -104.111947 0.102836 -5.945450
v -103.996643 0.102836 -5.830148
v -106.491595 0.566226 -4.804708
v -106.493734 0.453062 -4.915733
v -106.604761 0.341594 -4.883528
v -106.604761 0.365354 -4.716999
v -106.604761 0.531882 -4.693239
v -103.996643 0.531882 -4.693239
v -103.996643 0.365354 -4.716999
v -103.996643 0.336692 -4.886994
v -104.109810 0.453062 -4.917871
v -104.109810 0.566226 -4.804708
v -106.489456 -0.012467 -4.723176
v -106.604761 0.102836 -4.723176
v -106.604761 0.102836 -4.886238
v -106.489456 -0.012467 -4.886238
v -103.996643 0.102836 -4.723176
v -104.111947 -0.012467 -4.723176
v -104.111947 -0.012467 -4.886238
v -103.996643 0.102836 -4.886238
v -106.604761 3.715996 -4.393959
v -106.489456 3.715996 -4.278657
v -106.489456 3.879057 -4.278657
v -106.604761 3.879058 -4.393959
v -104.111947 3.715996 -4.278657
v -103.996643 3.715996 -4.393959
v -103.996643 3.879058 -4.393959
v -104.111947 3.879057 -4.278657
v -104.112218 3.875603 -4.832722
v -103.996643 3.878670 -4.711907
v -103.996643 3.715748 -4.689053
v -104.111802 3.714876 -4.804708
v -106.489600 3.714876 -4.804708
v -106.604761 3.715652 -4.688919
v -106.604761 3.878721 -4.711849
v -106.489187 3.875603 -4.832722
v -103.996643 4.409388 -4.901757
v -104.111947 4.320371 -4.992315
v -104.111947 5.021881 -4.278657
v -103.996643 4.908541 -4.393959
v -106.604761 4.908541 -4.393959
v -106.489456 5.021881 -4.278657
v -106.489456 4.320371 -4.992315
v -106.604761 4.409388 -4.901757
vt 0.187344 0.180441
vt 0.407422 0.294297
vt 0.187344 0.188459
vt 0.213859 0.188459
vt 0.413195 0.294297
vt 0.532220 0.288274
vt 0.532220 0.294297
vt 0.413195 0.308334
vt 0.213859 0.180441
vt 0.187344 0.188459
vt 0.187344 0.180441
vt 0.213859 0.180441
vt 0.213859 0.188459
vt 0.532220 0.308334
vt 0.187344 0.207146
vt 0.413195 0.316853
vt 0.413195 0.483050
vt 0.187344 0.218486
vt 0.211448 0.218297
vt 0.213361 0.206716
vt 0.532220 0.316853
vt 0.187344 0.218486
vt 0.187344 0.207146
vt 0.532220 0.483050
vt 0.213361 0.206716
vt 0.537993 0.316711
vt 0.798150 0.383529
vt 0.967644 0.965314
vt 0.211448 0.218297
vt 0.790869 0.383529
vt 0.967559 0.957596
vt 0.790869 0.316976
vt 0.965799 0.798461
vt 0.951150 0.957778
vt 0.303011 0.188459
vt 0.303011 0.180441
vt 0.797880 0.319241
vt 0.226991 0.180441
vt 0.226991 0.188459
vt 0.949391 0.798642
vt 0.943097 0.957867
vt 0.303011 0.180441
vt 0.303011 0.188459
vt 0.226991 0.188459
vt 0.226991 0.180441
vt 0.226773 0.205064
vt 0.413088 0.318505
vt 0.227052 0.204723
vt 0.413187 0.482991
vt 0.532327 0.318505
vt 0.532227 0.482991
vt 0.537993 0.483037
vt 0.407422 0.491568
vt 0.187344 0.439734
vt 0.413195 0.491568
vt 0.532220 0.491568
vt 0.413195 0.551270
vt 0.407422 0.545349
vt 0.187344 0.451074
vt 0.537993 0.491548
vt 0.212946 0.451051
vt 0.532220 0.551270
vt 0.532207 0.491388
vt 0.413208 0.491388
vt 0.532220 0.514622
vt 0.537993 0.519273
vt 0.211100 0.439710
vt 0.413195 0.514622
vt 0.407422 0.491551
vt 0.407422 0.519273
vt 0.187344 0.451074
vt 0.187344 0.439734
vt 0.211111 0.439717
vt 0.407422 0.483032
vt 0.955557 0.383529
vt 0.948277 0.383529
vt 0.948411 0.319391
vt 0.407422 0.316711
vt 0.537993 0.491568
vt 0.537993 0.545349
vt 0.537993 0.483050
vt 0.212951 0.451047
vt 0.303011 0.204797
vt 0.407422 0.483050
vt 0.537993 0.316853
vt 0.537993 0.308334
vt 0.407422 0.308334
vt 0.407422 0.316853
vt 0.537993 0.294297
vt 0.303011 0.204797
vt 0.228241 0.487956
vt 0.413195 0.288274
vt 0.941338 0.798731
vt 0.949306 0.790925
vt 0.951236 0.965495
vt 0.187344 0.522669
vt 0.965714 0.790743
vt 0.973852 0.798372
vt 0.955557 0.317220
vt 0.975612 0.957507
vt 0.798015 0.311435
vt 0.948411 0.311435
vt 0.790869 0.305268
vt 0.790869 0.303598
vt 0.955557 0.303598
vt 0.187344 0.522669
vt 0.228241 0.487956
vt 0.955557 0.305268
vn -0.093178 -0.747901 0.657238
vn -0.941969 -0.256832 0.216173
vn -0.955790 -0.294050 0.000000
vn -0.707095 -0.707118 0.000000
vn -0.037430 -0.282732 0.958468
vn 0.093178 -0.747900 0.657239
vn 0.037430 -0.282732 0.958468
vn -0.046204 0.000000 0.998932
vn -0.965723 0.000000 0.259577
vn 0.941972 -0.256827 0.216169
vn 0.707103 -0.707111 0.000000
vn 0.955810 -0.293985 0.000000
vn 0.965724 0.000000 0.259571
vn 0.046204 0.000000 0.998932
vn -0.964637 0.000000 0.263582
vn -0.046204 0.000000 0.998932
vn -0.046205 0.000000 0.998932
vn -0.962975 -0.000000 0.269591
vn -0.987716 0.022099 -0.154688
vn -0.987188 0.112945 -0.112713
vn 0.046204 0.000000 0.998932
vn 0.964650 0.000000 0.263535
vn 0.963040 0.000000 0.269357
vn 0.046205 0.000000 0.998932
vn 0.985656 0.119058 -0.119615
vn 0.987633 0.022585 -0.155148
vn -0.041321 0.993410 -0.106910
vn -0.953677 0.287639 -0.088107
vn -0.962386 0.270471 -0.025655
vn -0.066898 0.991028 -0.115709
vn -0.036463 0.307731 -0.950775
vn 0.042115 0.993382 -0.106858
vn 0.036463 0.307731 -0.950775
vn -0.036463 -0.307731 -0.950775
vn -0.950471 -0.298605 -0.086259
vn 0.951127 0.296123 -0.087573
vn 0.067879 0.990953 -0.115777
vn 0.963930 0.265151 -0.023109
vn 0.949783 -0.300617 -0.086841
vn 0.036463 -0.307731 -0.950775
vn -0.226550 -0.791714 -0.567330
vn -0.707095 -0.707118 0.000000
vn -0.951094 -0.308902 0.000000
vn 0.226551 -0.791712 -0.567333
vn 0.950400 -0.311030 0.000000
vn 0.707103 -0.707111 0.000000
vn -0.069390 0.033139 -0.997039
vn -0.964842 -0.001810 -0.262823
vn -0.046553 -0.008357 -0.998881
vn 0.069392 0.033102 -0.997040
vn 0.046607 -0.008356 -0.998878
vn 0.964886 -0.001820 -0.262662
vn -0.966322 0.000000 0.257338
vn -0.986937 -0.047921 -0.153814
vn -0.044292 0.000000 0.999019
vn 0.044292 0.000000 0.999019
vn -0.007322 0.000000 0.999973
vn -0.760598 0.000000 0.649224
vn 0.966345 0.000000 0.257249
vn 0.986941 -0.047891 -0.153797
vn 0.760608 0.000000 0.649211
vn 0.007322 0.000000 0.999973
vn 0.048930 -0.295380 -0.954126
vn -0.048931 -0.295380 -0.954126
vn 0.086400 -0.336453 -0.937728
vn 0.999815 -0.006499 -0.018127
vn -0.999815 -0.006501 -0.018129
vn -0.086424 -0.336457 -0.937724
s 1
g group6 group4 pCube17
usemtl initialShadingGroup
f 25/45/25 27/47/26 62/48/27 61/53/28
f 26/49/29 25/136/25 30/50/30 29/51/31
f 27/46/26 26/49/29 33/52/32 32/131/33
f 28/54/34 30/55/30 66/56/35 65/57/36
f 29/51/31 28/133/34 37/130/37 36/58/38
f 31/132/39 34/60/40 70/61/41 69/128/42
f 32/59/33 31/62/39 55/63/43 54/64/44
f 34/60/40 33/52/32 36/58/38 35/65/45
f 35/65/45 38/129/46 74/125/47 73/68/48
f 38/66/46 37/67/37 57/69/49 56/73/50
f 39/71/51 41/74/52 53/76/53 52/81/54
f 40/75/55 39/144/51 44/142/56 43/77/57
f 41/72/52 40/75/55 46/78/58 45/139/59
f 42/119/60 44/120/56 59/121/61 58/143/62
f 43/77/57 42/141/60 50/138/63 49/84/64
f 45/79/59 47/80/65 64/82/66 63/83/67
f 47/85/65 46/78/58 49/84/64 48/137/68
f 48/86/68 50/87/63 68/88/69 67/89/70
f 51/91/71 55/122/43 82/118/72 81/93/73
f 52/81/54 51/145/71 60/146/74 59/121/61
f 54/64/44 53/90/53 63/83/67 62/48/27
f 56/70/50 60/94/74 80/95/75 79/96/76
f 58/92/62 57/69/49 65/57/36 68/88/69
f 69/98/42 72/103/77 83/105/78 82/111/72
f 71/99/79 70/61/41 73/68/48 76/100/80
f 72/97/77 71/99/79 90/101/81 89/102/82
f 75/115/83 74/116/47 79/117/76 78/126/84
f 76/100/80 75/123/83 88/124/85 87/106/86
f 77/107/87 80/95/75 81/93/73 84/108/88
f 78/104/84 77/107/87 86/109/89 85/110/90
f 84/108/88 83/113/78 92/114/91 91/112/92
f 26/49/29 29/51/31 36/58/38 33/52/32
f 40/75/55 43/77/57 49/84/64 46/78/58
f 28/54/34 65/57/36 57/69/49 37/67/37
f 62/48/27 27/47/26 32/59/33 54/64/44
f 52/81/54 59/121/61 44/120/56 39/71/51
f 45/79/59 63/83/67 53/90/53 41/127/52
f 58/92/62 68/88/69 50/87/63 42/134/60
f 34/60/40 35/65/45 73/68/48 70/61/41
f 38/66/46 56/73/50 79/117/76 74/116/47
f 60/94/74 51/91/71 81/93/73 80/95/75
f 55/63/43 31/62/39 69/98/42 82/111/72
f 75/115/83 78/126/84 85/135/90 88/140/85
f 71/99/79 76/100/80 87/106/86 90/101/81
f 83/105/78 72/103/77 89/150/82 92/151/91
f 77/107/87 84/108/88 91/112/92 86/109/89
f 25/136/25 26/49/29 27/46/26
f 28/133/34 29/51/31 30/50/30
f 31/132/39 32/131/33 33/52/32 34/60/40
f 35/65/45 36/58/38 37/130/37 38/129/46
f 39/144/51 40/75/55 41/72/52
f 42/141/60 43/77/57 44/142/56
f 45/139/59 46/78/58 47/85/65
f 48/137/68 49/84/64 50/138/63
f 51/145/71 52/81/54 53/76/53 54/147/44 55/148/43
f 56/149/50 57/152/49 58/143/62 59/121/61 60/146/74
f 61/53/28 62/48/27 63/83/67 64/82/66
f 65/57/36 66/56/35 67/89/70 68/88/69
f 69/128/42 70/61/41 71/99/79 72/97/77
f 73/68/48 74/125/47 75/123/83 76/100/80
f 77/107/87 78/104/84 79/96/76 80/95/75
f 81/93/73 82/118/72 83/113/78 84/108/88
