# This file uses meters as units for non-parametric coordinates.

mtllib Floor_3.mtl
g default
v -3407.969476 0.000000 3362.693255
v -2407.969628 0.000000 3362.693255
v -3407.969476 0.000000 2362.693133
v -2407.969628 0.000000 2362.693133
v -2509.760888 0.000000 3462.693011
v -2509.760888 0.000000 2262.693011
v -2307.969598 0.000000 3259.598651
v -2509.760888 0.000000 3259.598651
v -3507.969598 0.000000 3259.598651
v -2307.969598 0.000000 2463.907245
v -2509.760888 0.000000 2463.907245
v -3507.969598 0.000000 2463.907245
v -3305.735833 0.000000 2262.693011
v -3305.735833 0.000000 2463.907245
v -3305.735833 0.000000 3259.598651
v -3305.735833 0.000000 3462.693011
vt 0.600477 0.023333
vt 0.900585 0.023333
vt 0.900585 0.099906
vt 0.600477 0.099906
vt 0.938964 0.061036
vt 0.976667 0.099906
vt 0.976667 0.399908
vt 0.900585 0.399908
vt 0.600477 0.399908
vt 0.938964 0.438069
vt 0.900585 0.475772
vt 0.600477 0.475772
vt 0.524228 0.399908
vt 0.561931 0.438069
vt 0.524228 0.099906
vt 0.561931 0.061036
vn 0.000000 1.000000 0.000000
vn 0.000000 1.000000 0.000000
vn 0.000000 1.000000 0.000000
vn 0.000000 1.000000 0.000000
vn 0.000000 1.000000 0.000000
vn 0.000000 1.000000 0.000000
vn 0.000000 1.000000 0.000000
vn 0.000000 1.000000 0.000000
vn 0.000000 1.000000 0.000000
vn 0.000000 1.000000 0.000000
vn 0.000000 1.000000 0.000000
vn 0.000000 1.000000 0.000000
vn 0.000000 1.000000 0.000000
vn 0.000000 1.000000 0.000000
vn 0.000000 1.000000 0.000000
vn 0.000000 1.000000 0.000000
s 1
g Piso3
usemtl lambert7SG
f 16/1/1 5/2/2 8/3/3 15/4/4
f 5/2/2 2/5/5 7/6/6 8/3/3
f 8/3/3 7/6/6 10/7/7 11/8/8
f 15/4/4 8/3/3 11/8/8 14/9/9
f 11/8/8 10/7/7 4/10/10 6/11/11
f 14/9/9 11/8/8 6/11/11 13/12/12
f 12/13/13 14/9/9 13/12/12 3/14/14
f 9/15/15 15/4/4 14/9/9 12/13/13
f 1/16/16 16/1/1 15/4/4 9/15/15
