# This file uses meters as units for non-parametric coordinates.

mtllib Fusible.mtl
g default
v -491.905462 43.823290 5188.244199
v -490.256209 43.823290 5188.889470
v -490.256209 59.807690 5188.889470
v -491.905462 59.807690 5188.244199
v -492.550781 43.823290 5186.594817
v -492.550781 59.807690 5186.594817
v -491.905462 43.823290 5184.945563
v -491.905462 59.807690 5184.945563
v -490.256209 59.807690 5184.300292
v -490.256209 43.823290 5184.300292
v -488.606955 59.807690 5184.945563
v -488.606955 43.823290 5184.945563
v -487.961636 43.823290 5186.594817
v -487.961636 59.807690 5186.594817
v -488.606955 43.823290 5188.244199
v -488.606955 59.807690 5188.244199
vt 0.268738 0.016490
vt 0.277332 0.016473
vt 0.277484 0.094068
vt 0.268890 0.094085
vt 0.260139 0.016507
vt 0.260291 0.094102
vt 0.251541 0.016524
vt 0.251694 0.094118
vt 0.320472 0.093984
vt 0.311875 0.094000
vt 0.311723 0.016406
vt 0.320320 0.016389
vt 0.303279 0.094017
vt 0.303127 0.016423
vt 0.294527 0.016439
vt 0.294679 0.094034
vt 0.285934 0.016456
vt 0.286086 0.094051
vn -0.364355 0.000000 0.931260
vn 0.000000 0.000000 1.000000
vn 0.000000 0.000000 1.000000
vn -0.364355 0.000000 0.931260
vn -1.000000 0.000000 0.000000
vn -0.931260 0.000000 0.364354
vn -0.931260 0.000000 0.364354
vn -1.000000 0.000000 0.000000
vn -0.931251 0.000000 -0.364379
vn -0.931251 0.000000 -0.364379
vn -0.364355 0.000000 -0.931260
vn 0.000000 0.000000 -1.000000
vn 0.000000 0.000000 -1.000000
vn -0.364355 0.000000 -0.931260
vn 0.364355 0.000000 -0.931260
vn 0.364355 0.000000 -0.931260
vn 1.000000 0.000000 0.000000
vn 0.931251 0.000000 -0.364379
vn 0.931251 0.000000 -0.364379
vn 1.000000 0.000000 0.000000
vn 0.931260 0.000000 0.364354
vn 0.931260 0.000000 0.364354
vn 0.364355 0.000000 0.931260
vn 0.364355 0.000000 0.931260
s 1
g polySurface5 group3 Fusible
usemtl initialShadingGroup
f 1/1/1 2/2/2 3/3/3 4/4/4
s 2
f 5/5/5 1/1/6 4/4/7 6/6/8
f 7/7/9 5/5/5 6/6/8 8/8/10
s 3
f 8/9/11 9/10/12 10/11/13 7/12/14
f 9/10/12 11/13/15 12/14/16 10/11/13
s 4
f 13/15/17 12/14/18 11/13/19 14/16/20
f 15/17/21 13/15/17 14/16/20 16/18/22
s 1
f 2/2/2 15/17/23 16/18/24 3/3/3
g default
v -492.257778 40.650994 5188.596515
v -490.256209 40.650994 5189.379630
v -488.254639 40.650994 5188.596515
v -492.257778 62.672263 5188.596515
v -490.256209 62.672263 5189.379630
v -488.254639 62.672263 5188.596515
v -493.040951 62.672263 5186.594789
v -490.256209 62.672263 5186.594789
v -487.471466 62.672263 5186.594789
v -492.257778 62.672263 5184.593219
v -490.256209 62.672263 5183.810105
v -488.254639 62.672263 5184.593219
v -492.257778 40.650994 5184.593219
v -490.256209 40.650994 5183.810105
v -488.254639 40.650994 5184.593219
v -493.040951 40.650994 5186.594789
v -490.256209 40.650994 5186.594789
v -487.471466 40.650994 5186.594789
v -490.256209 59.807690 5189.379630
v -492.257778 59.807690 5188.596515
v -493.040951 59.807690 5186.594789
v -492.257778 59.807690 5184.593219
v -490.256209 59.807690 5183.810105
v -488.254639 59.807690 5184.593219
v -487.471466 59.807690 5186.594789
v -488.254639 59.807690 5188.596515
v -490.256209 43.823290 5189.379630
v -492.257778 43.823290 5188.596515
v -493.040951 43.823290 5186.594789
v -492.257778 43.823290 5184.593219
v -490.256209 43.823290 5183.810105
v -488.254639 43.823290 5184.593219
v -487.471466 43.823290 5186.594789
v -488.254639 43.823290 5188.596515
vt 0.447996 0.092264
vt 0.447976 0.081135
vt 0.447651 0.070006
vt 0.467134 0.088393
vt 0.461245 0.075223
vt 0.455390 0.062052
vt 0.447516 0.025490
vt 0.447534 0.036618
vt 0.447572 0.047747
vt 0.447618 0.058876
vt 0.447992 0.114522
vt 0.447989 0.103393
vt 0.433153 0.081160
vt 0.433163 0.092289
vt 0.433159 0.103418
vt 0.433168 0.114547
vt 0.432686 0.025515
vt 0.432711 0.036643
vt 0.432746 0.047772
vt 0.432778 0.058901
vt 0.432798 0.070031
vt 0.356125 0.093468
vt 0.355040 0.086230
vt 0.368959 0.086230
vt 0.370010 0.093468
vt 0.355180 0.105519
vt 0.370942 0.105519
vt 0.354908 0.067010
vt 0.354908 0.055859
vt 0.369047 0.055859
vt 0.369047 0.067010
vt 0.354908 0.045243
vt 0.369047 0.045243
vt 0.336620 0.081699
vt 0.346996 0.081699
vt 0.344490 0.093468
vt 0.331865 0.093468
vt 0.342282 0.105050
vt 0.334993 0.100644
vt 0.352043 0.105050
vt 0.393296 0.092299
vt 0.386724 0.101076
vt 0.376727 0.101076
vt 0.375033 0.077536
vt 0.384511 0.077536
vt 0.391774 0.082580
vt 0.354908 0.035642
vt 0.369047 0.035642
vt 0.354908 0.024764
vt 0.369047 0.024764
vt 0.369036 0.076620
vt 0.354931 0.076620
vt 0.474417 0.069311
vt 0.466477 0.061507
vt 0.474950 0.080440
vt 0.455989 0.088939
vt 0.424211 0.062879
vt 0.413050 0.063425
vt 0.405865 0.071969
vt 0.406379 0.083098
vt 0.426022 0.089704
vt 0.414906 0.090250
vn -0.364355 0.000000 0.931260
vn 0.000000 0.000000 1.000000
vn 0.000000 0.000000 1.000000
vn -0.364355 0.000000 0.931260
vn 0.364355 0.000000 0.931260
vn 0.364355 0.000000 0.931260
vn 0.000000 1.000000 0.000000
vn 0.000000 1.000000 0.000000
vn 0.000000 1.000000 0.000000
vn 0.000000 1.000000 0.000000
vn 0.000000 1.000000 0.000000
vn 0.000000 1.000000 0.000000
vn 0.000000 1.000000 0.000000
vn 0.000000 1.000000 0.000000
vn 0.000000 1.000000 0.000000
vn -0.364355 0.000000 -0.931260
vn 0.000000 0.000000 -1.000000
vn 0.000000 0.000000 -1.000000
vn -0.364355 0.000000 -0.931260
vn 0.364355 0.000000 -0.931260
vn 0.364355 0.000000 -0.931260
vn 0.000000 -1.000000 0.000000
vn 0.000000 -1.000000 0.000000
vn 0.000000 -1.000000 0.000000
vn 0.000000 -1.000000 -0.000000
vn 0.000000 -1.000000 0.000000
vn 0.000000 -1.000000 0.000000
vn 0.000000 -1.000000 -0.000000
vn 0.000000 -1.000000 -0.000000
vn 0.000000 -1.000000 0.000000
vn 1.000000 0.000000 -0.000000
vn 0.931251 0.000000 -0.364379
vn 0.931251 0.000000 -0.364379
vn 1.000000 0.000000 -0.000000
vn 0.931260 0.000000 0.364354
vn 0.931260 0.000000 0.364354
vn -0.931251 0.000000 -0.364379
vn -1.000000 0.000000 -0.000000
vn -1.000000 0.000000 -0.000000
vn -0.931251 0.000000 -0.364379
vn -0.931260 0.000000 0.364354
vn -0.931260 0.000000 0.364354
vn -0.364356 0.000000 0.931260
vn 0.000000 0.000000 1.000000
vn 0.000000 0.000000 1.000000
vn -0.364356 0.000000 0.931260
vn -1.000000 0.000000 0.000000
vn -0.931260 0.000000 0.364354
vn -0.931260 0.000000 0.364354
vn -1.000000 0.000000 0.000000
vn -0.931251 0.000000 -0.364379
vn -0.931251 0.000000 -0.364379
vn -0.364356 0.000000 -0.931260
vn 0.000000 0.000000 -1.000000
vn 0.000000 0.000000 -1.000000
vn -0.364356 0.000000 -0.931260
vn 0.364356 0.000000 -0.931260
vn 0.364356 0.000000 -0.931260
vn 1.000000 0.000000 0.000000
vn 0.931251 0.000000 -0.364379
vn 0.931251 0.000000 -0.364379
vn 1.000000 0.000000 0.000000
vn 0.931260 0.000000 0.364354
vn 0.931260 0.000000 0.364354
vn 0.364356 0.000000 0.931260
vn 0.364356 0.000000 0.931260
vn 0.000000 -1.000000 0.000000
vn 0.000000 -1.000000 0.000000
vn 0.000000 -1.000000 0.000000
vn 0.000000 -1.000000 0.000000
vn 0.000000 -1.000000 0.000000
vn 0.000000 -1.000000 0.000000
vn 0.000000 -1.000000 0.000000
vn 0.000000 -1.000000 0.000000
vn 0.000000 1.000000 0.000000
vn 0.000000 1.000000 0.000000
vn 0.000000 1.000000 0.000000
vn 0.000000 1.000000 0.000000
vn 0.000000 1.000000 0.000000
vn 0.000000 1.000000 0.000000
vn 0.000000 1.000000 0.000000
vn 0.000000 1.000000 0.000000
s 1
g group3 Fusible polySurface6
usemtl initialShadingGroup
f 17/50/25 18/65/26 43/66/27 44/51/28
f 18/65/26 19/67/29 50/68/30 43/66/27
s 2
f 20/74/31 21/20/32 24/23/33 23/22/34
f 21/20/32 22/21/35 25/24/36 24/23/33
f 23/22/34 24/23/33 27/71/37 26/73/38
f 24/23/33 25/24/36 28/72/39 27/71/37
s 3
f 46/49/40 47/69/41 30/70/42 29/46/43
f 47/69/41 48/42/44 31/41/45 30/70/42
s 4
f 29/52/46 30/53/47 33/54/48 32/55/49
f 30/53/47 31/41/50 34/40/51 33/54/48
f 32/55/49 33/54/48 18/56/52 17/57/53
f 33/54/48 34/40/51 19/58/54 18/56/52
s 5
f 34/40/55 31/41/56 48/42/57 49/43/58
f 19/44/59 34/40/55 49/43/58 50/45/60
s 6
f 29/46/61 32/47/62 45/48/63 46/49/64
f 32/47/62 17/50/65 44/51/66 45/48/63
s 7
f 36/32/67 35/31/68 21/20/69 20/19/70
s 8
f 37/33/71 36/32/72 20/19/73 23/30/74
f 38/34/75 37/33/71 23/30/74 26/29/76
s 9
f 26/25/77 27/26/78 39/36/79 38/35/80
f 27/26/78 28/27/81 40/37/82 39/36/79
s 10
f 41/38/83 40/37/84 28/27/85 25/28/86
f 42/39/87 41/38/83 25/28/86 22/21/88
s 7
f 35/31/68 42/39/89 22/21/90 21/20/69
s off
f 36/79/91 37/80/92 38/78/93 39/77/94 40/76/95 41/75/96 42/39/97 35/31/98
f 44/59/99 43/60/100 50/61/101 49/43/102 48/42/103 47/62/104 46/63/105 45/64/106
