# This file uses meters as units for non-parametric coordinates.

mtllib Martillo_de_bola.mtl
g default
v 356.344204 -5.246632 4098.786601
v 358.154452 -5.246632 4099.551380
v 359.964701 -5.246632 4098.786601
v 356.344204 34.285942 4098.786601
v 358.154452 34.285942 4099.551380
v 359.964701 34.285942 4098.786601
v 355.579425 34.285942 4096.976352
v 358.154452 34.285942 4096.976352
v 360.729480 34.285942 4096.976352
v 356.344204 34.285942 4095.166104
v 358.154452 34.285942 4094.401325
v 359.964701 34.285942 4095.166104
v 356.344204 -5.246632 4095.166104
v 358.154452 -5.246632 4094.401325
v 359.964701 -5.246632 4095.166104
v 355.579425 -5.246632 4096.976352
v 358.154452 -5.246632 4096.976352
v 360.729480 -5.246632 4096.976352
vt 0.555203 0.077330
vt 0.555087 0.064145
vt 0.770505 0.063930
vt 0.770622 0.077115
vt 0.555320 0.090516
vt 0.770738 0.090301
vt 0.555787 0.143258
vt 0.555670 0.130072
vt 0.771088 0.129858
vt 0.771205 0.143043
vt 0.555553 0.116887
vt 0.770972 0.116672
vt 0.780390 0.112594
vt 0.770855 0.103486
vt 0.786711 0.096622
vt 0.793576 0.112478
vt 0.779846 0.080766
vt 0.802567 0.089757
vt 0.802684 0.102943
vt 0.793032 0.080649
vt 0.523603 0.103721
vt 0.523487 0.090535
vt 0.539462 0.097118
vt 0.532879 0.113093
vt 0.532859 0.081260
vt 0.546045 0.081143
vt 0.555437 0.103701
vt 0.546064 0.112977
vt 0.770272 0.037559
vt 0.770388 0.050744
vt 0.554970 0.050959
vt 0.554853 0.037774
vn -0.389167 0.000000 0.921167
vn 0.000000 0.000000 1.000000
vn 0.000000 0.000000 1.000000
vn -0.389167 0.000000 0.921167
vn 0.389167 0.000000 0.921167
vn 0.389167 0.000000 0.921167
vn 0.000000 1.000000 -0.000000
vn 0.000000 1.000000 -0.000000
vn 0.000000 1.000000 0.000000
vn 0.000000 1.000000 0.000000
vn 0.000000 1.000000 0.000000
vn 0.000000 1.000000 0.000000
vn 0.000000 1.000000 0.000000
vn 0.000000 1.000000 0.000000
vn 0.000000 1.000000 0.000000
vn -0.389167 0.000000 -0.921167
vn 0.000000 0.000000 -1.000000
vn 0.000000 0.000000 -1.000000
vn -0.389167 0.000000 -0.921167
vn 0.389167 0.000000 -0.921167
vn 0.389167 0.000000 -0.921167
vn 0.000000 -1.000000 0.000000
vn 0.000000 -1.000000 0.000000
vn 0.000000 -1.000000 0.000000
vn 0.000000 -1.000000 0.000000
vn 0.000000 -1.000000 0.000000
vn 0.000000 -1.000000 0.000000
vn 0.000000 -1.000000 -0.000000
vn 0.000000 -1.000000 -0.000000
vn 0.000000 -1.000000 0.000000
vn 1.000000 0.000000 0.000000
vn 0.921167 0.000000 -0.389167
vn 0.921167 0.000000 -0.389167
vn 1.000000 0.000000 0.000000
vn 0.921167 0.000000 0.389167
vn 0.921167 0.000000 0.389167
vn -0.921167 0.000000 -0.389167
vn -1.000000 0.000000 0.000000
vn -1.000000 0.000000 0.000000
vn -0.921167 0.000000 -0.389167
vn -0.921167 0.000000 0.389167
vn -0.921167 0.000000 0.389167
s 1
g pCube47 MartilloDeBola
usemtl lambert13SG
f 1/11/1 2/27/2 5/14/3 4/12/4
f 2/27/2 3/5/5 6/6/6 5/14/3
s 2
f 4/13/7 5/14/8 8/15/9 7/16/10
f 5/14/8 6/6/11 9/17/12 8/15/9
f 7/16/10 8/15/9 11/18/13 10/19/14
f 8/15/9 9/17/12 12/20/15 11/18/13
s 3
f 10/29/16 11/30/17 14/31/18 13/32/19
f 11/30/17 12/3/20 15/2/21 14/31/18
s 4
f 13/21/22 14/22/23 17/23/24 16/24/25
f 14/22/23 15/25/26 18/26/27 17/23/24
f 16/24/25 17/23/24 2/27/28 1/28/29
f 17/23/24 18/26/27 3/5/30 2/27/28
s 5
f 18/1/31 15/2/32 12/3/33 9/4/34
f 3/5/35 18/1/31 9/4/34 6/6/36
s 6
f 13/7/37 16/8/38 7/9/39 10/10/40
f 16/8/38 1/11/41 4/12/42 7/9/39
g default
v 354.477683 23.582201 4107.150416
v 358.154427 22.532780 4107.150416
v 361.831172 23.582201 4107.150416
v 353.387298 27.120823 4107.150416
v 358.154427 27.120823 4107.150416
v 362.921557 27.120823 4107.150416
v 354.477683 30.659444 4107.150416
v 358.154427 31.708866 4107.150416
v 361.831172 30.659444 4107.150416
v 353.620326 31.484536 4096.976389
v 358.154427 32.778648 4096.976389
v 362.688457 31.484536 4096.976389
v 355.745082 29.439556 4087.577734
v 358.154427 30.127209 4087.577734
v 360.563629 29.439556 4087.577734
v 355.030702 27.120823 4087.577734
v 358.154427 27.120823 4085.964594
v 361.278152 27.120823 4087.577734
v 355.745082 24.802090 4087.577734
v 358.154427 24.114439 4087.577734
v 360.563629 24.802090 4087.577734
v 353.620326 22.757112 4096.976389
v 358.154427 21.462995 4096.976389
v 362.688457 22.757112 4096.976389
v 364.033054 27.120823 4096.976389
v 352.275729 27.120823 4096.976389
v 354.477683 30.659444 4104.716995
v 353.387298 27.120823 4104.716995
v 354.477683 23.582201 4104.716995
v 358.154427 22.532780 4104.716995
v 361.831172 23.582201 4104.716995
v 362.921557 27.120823 4104.716995
v 361.831172 30.659444 4104.716995
v 358.154427 31.708866 4104.716995
v 358.154427 30.127209 4089.172195
v 360.563629 29.439556 4089.172195
v 361.278152 27.120823 4089.172195
v 360.563629 24.802090 4089.172195
v 358.154427 24.114439 4089.172195
v 355.745082 24.802090 4089.172195
v 355.030702 27.120823 4089.172195
v 355.745082 29.439556 4089.172195
v 353.620326 31.484536 4100.866762
v 352.275729 27.120823 4100.866762
v 353.620326 22.757112 4100.866762
v 358.154427 21.462995 4100.866762
v 362.688457 22.757112 4100.866762
v 364.033054 27.120823 4100.866762
v 362.688457 31.484536 4100.866762
v 358.154427 32.778648 4100.866762
v 358.154427 32.778648 4093.085221
v 362.688457 31.484536 4093.085221
v 364.033054 27.120823 4093.085221
v 362.688457 22.757112 4093.085221
v 358.154427 21.462995 4093.085221
v 353.620326 22.757112 4093.085221
v 352.275729 27.120823 4093.085221
v 353.620326 31.484536 4093.085221
v 354.336789 27.120840 4101.484357
v 354.336789 27.120806 4104.120861
v 355.199890 29.921976 4104.120861
v 355.199962 29.921974 4101.484357
v 355.199890 24.319672 4101.484357
v 355.199962 24.319668 4104.120861
v 358.154427 23.476360 4101.484357
v 358.154427 23.476360 4104.120861
v 361.108965 24.319646 4101.484357
v 361.108965 24.319668 4104.120861
v 361.972138 27.120845 4104.120861
v 361.972138 27.120845 4101.484357
v 361.108965 29.921995 4104.120861
v 361.109037 29.921974 4101.484357
v 358.154427 30.765281 4104.120861
v 358.154427 30.765281 4101.484357
v 358.154427 30.765266 4092.468023
v 361.108965 29.921982 4092.468023
v 360.090463 28.956313 4089.767932
v 358.154427 29.508894 4089.767932
v 360.655978 27.120840 4089.767932
v 361.972138 27.120845 4092.468023
v 360.090392 25.285326 4089.767932
v 361.108965 24.319670 4092.468023
v 358.154427 24.732752 4089.767932
v 358.154427 23.476384 4092.468023
v 356.218463 25.285330 4089.767932
v 355.199962 24.319668 4092.468023
v 355.652805 27.120834 4089.767932
v 354.336789 27.120806 4092.468023
v 356.218463 28.956322 4089.767932
v 355.199890 29.921965 4092.468023
vt 0.556292 0.238046
vt 0.529845 0.238046
vt 0.663370 0.184036
vt 0.583371 0.233787
vt 0.718224 0.242084
vt 0.691882 0.242084
vt 0.637725 0.235227
vt 0.609776 0.233787
vt 0.664932 0.235227
vt 0.640041 0.246104
vt 0.609808 0.244873
vt 0.664916 0.246104
vt 0.610712 0.375149
vt 0.626934 0.375149
vt 0.628230 0.382428
vt 0.610723 0.382428
vt 0.661696 0.379917
vt 0.661678 0.387060
vt 0.718455 0.431179
vt 0.575926 0.385741
vt 0.678785 0.387060
vt 0.735006 0.397557
vt 0.559473 0.385741
vt 0.717439 0.397557
vt 0.734322 0.390253
vt 0.559429 0.378780
vt 0.717394 0.390253
vt 0.556246 0.248804
vt 0.531824 0.248803
vt 0.718222 0.253441
vt 0.677543 0.379917
vt 0.694069 0.253441
vt 0.574795 0.378780
vt 0.585820 0.244873
vt 0.578643 0.271807
vt 0.577097 0.260180
vt 0.609868 0.255926
vt 0.609846 0.267792
vt 0.556239 0.271807
vt 0.556177 0.260180
vt 0.740528 0.278240
vt 0.740657 0.265350
vt 0.718137 0.278240
vt 0.718264 0.265350
vt 0.686363 0.257190
vt 0.688547 0.269732
vt 0.664850 0.257190
vt 0.664817 0.269732
vt 0.632341 0.255926
vt 0.634565 0.267792
vt 0.630377 0.348974
vt 0.662260 0.353075
vt 0.661685 0.372576
vt 0.625638 0.367702
vt 0.692562 0.363252
vt 0.702058 0.382618
vt 0.716823 0.363252
vt 0.717402 0.382618
vt 0.544626 0.371391
vt 0.538634 0.353456
vt 0.559369 0.371391
vt 0.559618 0.353456
vt 0.596549 0.367702
vt 0.591201 0.348974
vt 0.610738 0.367702
vt 0.610312 0.348974
vt 0.584132 0.318036
vt 0.582647 0.298961
vt 0.609632 0.298961
vt 0.609852 0.318036
vt 0.558594 0.318036
vt 0.557009 0.298961
vt 0.533207 0.318036
vt 0.744704 0.298961
vt 0.716637 0.318036
vt 0.717537 0.298961
vt 0.692654 0.298961
vt 0.690226 0.318036
vt 0.664840 0.298961
vt 0.663862 0.318036
vt 0.637398 0.298961
vt 0.636623 0.318036
vt 0.662866 0.335288
vt 0.635515 0.335288
vt 0.687715 0.335288
vt 0.716526 0.335288
vt 0.534046 0.335288
vt 0.559588 0.335288
vt 0.585489 0.335288
vt 0.609984 0.335288
vt 0.573497 0.371391
vt 0.579986 0.353456
vt 0.595140 0.375149
vt 0.733506 0.382618
vt 0.742233 0.363252
vt 0.746455 0.335288
vt 0.543484 0.378780
vt 0.676316 0.372576
vt 0.682790 0.353075
vt 0.701132 0.390253
vt 0.640350 0.353075
vt 0.646304 0.372576
vt 0.645175 0.379917
vt 0.642353 0.257190
vt 0.640411 0.269732
vt 0.634778 0.244873
vt 0.697069 0.278240
vt 0.696948 0.265350
vt 0.688854 0.246104
vt 0.532197 0.271807
vt 0.534139 0.260180
vt 0.743314 0.253441
vt 0.527867 0.298961
vt 0.586122 0.267792
vt 0.588449 0.255926
vt 0.579703 0.248803
vt 0.742754 0.318036
vt 0.643962 0.387060
vt 0.691172 0.235227
vt 0.745547 0.242084
vt 0.581805 0.238046
vt 0.593826 0.382428
vt 0.700487 0.397557
vt 0.542407 0.385741
vt 0.660707 0.422007
vt 0.611681 0.416901
vt 0.558643 0.419224
vt 0.637178 0.233787
vt 0.719880 0.191327
vt 0.554868 0.188797
vt 0.611268 0.182277
vn 0.000000 0.000000 1.000000
vn 0.000000 0.000000 1.000000
vn 0.000000 0.000000 1.000000
vn 0.000000 0.000000 1.000000
vn 0.000000 0.000000 1.000000
vn 0.000000 0.000000 1.000000
vn 0.000000 0.000000 1.000000
vn 0.000000 0.000000 1.000000
vn 0.000000 0.000000 1.000000
vn -0.274461 0.961598 0.000000
vn 0.000000 1.000000 0.000000
vn 0.000000 1.000000 0.000000
vn -0.274461 0.961598 0.000000
vn 0.274461 0.961598 0.000000
vn 0.274461 0.961598 0.000000
vn -0.274451 0.961601 0.000000
vn 0.000000 1.000000 0.000000
vn 0.000000 1.000000 0.000000
vn -0.274451 0.961601 0.000000
vn 0.274466 0.961597 0.000000
vn 0.274466 0.961597 0.000000
vn -0.301481 0.313248 -0.900547
vn -0.000002 0.328538 -0.944491
vn 0.000000 -0.000000 -1.000000
vn -0.317458 0.000000 -0.948272
vn 0.301488 0.313255 -0.900542
vn 0.317466 0.000000 -0.948270
vn -0.000002 -0.328538 -0.944491
vn -0.301480 -0.313248 -0.900547
vn 0.301488 -0.313255 -0.900542
vn -0.274450 -0.961601 0.000000
vn 0.000000 -1.000000 0.000000
vn 0.000000 -1.000000 0.000000
vn -0.274450 -0.961601 0.000000
vn 0.274466 -0.961597 0.000000
vn 0.274466 -0.961597 0.000000
vn -0.274461 -0.961598 0.000000
vn 0.000000 -1.000000 0.000000
vn 0.000000 -1.000000 0.000000
vn -0.274461 -0.961598 0.000000
vn 0.274461 -0.961598 0.000000
vn 0.274461 -0.961598 0.000000
vn 0.955655 -0.294488 0.000000
vn 0.955655 -0.294488 0.000000
vn 1.000000 0.000000 0.000000
vn 1.000000 0.000000 0.000000
vn 0.955659 -0.294475 0.000000
vn 0.955659 -0.294475 0.000000
vn 1.000000 0.000000 0.000000
vn 1.000000 0.000000 0.000000
vn 0.955655 0.294488 0.000000
vn 0.955655 0.294488 0.000000
vn 0.955659 0.294475 0.000000
vn 0.955659 0.294475 0.000000
vn -0.955672 -0.294434 0.000000
vn -0.955672 -0.294434 0.000000
vn -1.000000 0.000000 0.000000
vn -1.000000 0.000000 0.000000
vn -0.955659 -0.294475 0.000000
vn -0.955659 -0.294475 0.000000
vn -1.000000 0.000000 0.000000
vn -1.000000 0.000000 0.000000
vn -0.955672 0.294434 0.000000
vn -0.955672 0.294434 0.000000
vn -0.955659 0.294475 0.000000
vn -0.955659 0.294475 0.000000
vn -1.000000 0.000007 -0.000000
vn -1.000000 -0.000007 -0.000000
vn -0.955660 0.294474 -0.000011
vn -0.955660 0.294474 -0.000011
vn -0.955660 -0.294473 0.000011
vn -0.955660 -0.294473 0.000011
vn -0.274470 -0.961596 0.000003
vn -0.000002 -1.000000 0.000004
vn -0.000002 -1.000000 0.000004
vn -0.274470 -0.961596 0.000003
vn 0.274463 -0.961597 0.000004
vn 0.274463 -0.961598 0.000004
vn 1.000000 -0.000006 0.000007
vn 0.955657 -0.294481 0.000001
vn 0.955657 -0.294481 0.000001
vn 1.000000 -0.000006 0.000007
vn 0.955659 0.294475 0.000012
vn 0.955659 0.294475 0.000012
vn -0.000002 1.000000 -0.000002
vn 0.274460 0.961598 -0.000000
vn 0.274460 0.961598 -0.000000
vn -0.000002 1.000000 -0.000002
vn -0.274469 0.961596 -0.000004
vn -0.274469 0.961596 -0.000004
vn -0.000000 0.906655 -0.421873
vn 0.250525 0.877742 -0.408419
vn 0.250525 0.877742 -0.408419
vn -0.000001 0.906655 -0.421873
vn 0.898898 -0.000007 -0.438157
vn 0.898898 -0.000009 -0.438157
vn 0.866285 0.266930 -0.422254
vn 0.866285 0.266930 -0.422254
vn 0.866279 -0.266937 -0.422263
vn 0.866279 -0.266937 -0.422263
vn -0.000000 -0.906655 -0.421873
vn 0.250527 -0.877741 -0.408420
vn 0.250527 -0.877741 -0.408420
vn 0.000000 -0.906655 -0.421873
vn -0.250531 -0.877741 -0.408418
vn -0.250531 -0.877741 -0.408418
vn -0.898907 -0.000004 -0.438139
vn -0.866286 -0.266955 -0.422237
vn -0.866286 -0.266955 -0.422237
vn -0.898907 -0.000009 -0.438139
vn -0.866287 0.266942 -0.422243
vn -0.866287 0.266942 -0.422243
vn -0.250530 0.877741 -0.408419
vn -0.250530 0.877741 -0.408419
vn -1.000000 0.000000 0.000000
vn -1.000000 -0.000000 0.000000
vn -0.955661 0.294469 0.000000
vn -0.955661 0.294469 0.000000
vn -0.955661 -0.294469 0.000000
vn -0.955661 -0.294469 0.000000
vn -0.274458 -0.961599 0.000000
vn 0.000000 -1.000000 0.000000
vn 0.000000 -1.000000 0.000000
vn -0.274458 -0.961599 0.000000
vn 0.274462 -0.961598 0.000000
vn 0.274462 -0.961598 0.000000
vn 1.000000 -0.000000 0.000000
vn 0.955661 -0.294469 0.000000
vn 0.955661 -0.294469 0.000000
vn 1.000000 0.000000 0.000000
vn 0.955661 0.294469 0.000000
vn 0.955661 0.294469 0.000000
vn -0.000000 1.000000 0.000000
vn 0.274461 0.961598 0.000000
vn 0.274461 0.961598 0.000000
vn -0.000000 1.000000 0.000000
vn -0.274457 0.961599 0.000000
vn -0.274457 0.961599 0.000000
vn 0.274461 0.961598 0.000000
vn 0.000000 1.000000 0.000000
vn 1.000000 0.000000 0.000000
vn 0.955661 0.294469 0.000000
vn 0.955661 -0.294469 0.000000
vn 0.000000 -1.000000 0.000000
vn 0.274462 -0.961598 0.000000
vn -0.274458 -0.961599 0.000000
vn -1.000000 0.000000 0.000000
vn -0.955661 -0.294469 0.000000
vn -0.955661 0.294469 0.000000
vn -0.274457 0.961599 0.000000
vn -0.531733 -0.000001 -0.846912
vn -0.341003 0.365993 -0.865890
vn -0.348887 0.358325 -0.865957
vn -0.531733 -0.000006 -0.846912
vn -0.184165 0.194622 0.963434
vn -0.287039 0.000001 0.957919
vn -0.287039 0.000002 0.957919
vn -0.186136 0.192637 0.963454
vn -0.341007 -0.365980 -0.865894
vn -0.348877 -0.358327 -0.865960
vn -0.184164 -0.194625 0.963434
vn -0.186139 -0.192636 0.963454
vn -0.000001 -0.293260 0.956033
vn -0.000001 -0.293260 0.956033
vn 0.000000 -0.534107 -0.845417
vn -0.000000 -0.534107 -0.845417
vn 0.184169 -0.194633 0.963431
vn 0.186145 -0.192643 0.963452
vn 0.341008 -0.365999 -0.865886
vn 0.348891 -0.358333 -0.865952
vn 0.531754 -0.000003 -0.846899
vn 0.531754 0.000002 -0.846899
vn 0.287057 -0.000002 0.957914
vn 0.287057 -0.000001 0.957914
vn 0.341011 0.366001 -0.865884
vn 0.348890 0.358338 -0.865950
vn 0.184166 0.194637 0.963431
vn 0.186148 0.192642 0.963451
vn -0.000001 0.534110 -0.845415
vn -0.000001 0.534110 -0.845415
vn -0.000000 0.293259 0.956033
vn -0.000000 0.293259 0.956033
vn -0.000000 0.293085 -0.956086
vn 0.184057 0.194517 -0.963476
vn 0.186033 0.192527 -0.963496
vn -0.000000 0.293085 -0.956086
vn 0.450939 0.483404 0.750317
vn -0.000001 0.693835 0.720134
vn 0.000000 0.693835 0.720134
vn 0.461014 0.473655 0.750411
vn 0.691614 -0.000010 0.722267
vn 0.691614 -0.000004 0.722267
vn 0.286885 -0.000001 -0.957965
vn 0.286885 0.000001 -0.957965
vn 0.450951 -0.483376 0.750328
vn 0.460996 -0.473655 0.750422
vn 0.184057 -0.194516 -0.963476
vn 0.186033 -0.192526 -0.963496
vn -0.000002 -0.693833 0.720136
vn -0.000001 -0.693833 0.720136
vn -0.000000 -0.293084 -0.956087
vn -0.000000 -0.293084 -0.956087
vn -0.450962 -0.483338 0.750345
vn -0.460960 -0.473663 0.750439
vn -0.184054 -0.194505 -0.963479
vn -0.186024 -0.192522 -0.963499
vn -0.691585 -0.000003 0.722296
vn -0.691585 0.000002 0.722295
vn -0.286869 -0.000001 -0.957970
vn -0.286869 -0.000002 -0.957970
vn -0.450964 0.483339 0.750343
vn -0.460959 0.473666 0.750438
vn -0.184053 0.194508 -0.963479
vn -0.186027 0.192521 -0.963499
s 1
g MartilloDeBola pCube48
usemtl lambert13SG
f 19/33/43 20/34/44 23/162/45 22/153/46
f 20/152/44 21/37/47 24/38/48 23/161/45
f 22/36/46 23/163/45 26/160/49 25/40/50
f 23/35/45 24/151/48 27/41/51 26/39/49
s 2
f 25/40/52 26/160/53 52/138/54 45/43/55
f 26/39/53 27/41/56 51/44/57 52/42/54
s 3
f 60/45/58 53/46/59 32/47/60 31/48/61
f 53/135/59 54/49/62 33/50/63 32/150/60
s 4
f 31/48/64 32/47/65 35/158/66 34/154/67
f 32/150/65 33/50/68 36/53/69 35/157/66
f 34/52/67 35/159/66 38/156/70 37/55/71
f 35/51/66 36/155/69 39/56/72 38/54/70
s 5
f 37/55/73 38/156/74 57/129/75 58/58/76
f 38/54/74 39/56/77 56/59/78 57/57/75
s 6
f 47/60/79 48/61/80 20/34/81 19/33/82
f 48/144/80 49/62/83 21/37/84 20/152/81
s 7
f 56/59/85 39/56/86 36/155/87 55/132/88
s 8
f 21/37/89 49/62/90 50/64/91 24/38/92
s 7
f 55/63/88 36/53/87 33/50/93 54/49/94
s 8
f 24/151/92 50/141/91 51/44/95 27/41/96
s 9
f 37/55/97 58/58/98 59/65/99 34/52/100
s 10
f 47/60/101 19/33/102 22/153/103 46/148/104
s 9
f 34/154/100 59/125/99 60/45/105 31/48/106
s 10
f 46/66/104 22/36/103 25/40/107 45/43/108
s 11
f 77/146/109 78/147/110 79/69/111 80/70/112
f 81/71/113 82/72/114 78/68/110 77/67/109
s 12
f 81/71/115 83/142/116 84/143/117 82/72/118
f 83/73/116 85/75/119 86/76/120 84/74/117
s 13
f 87/140/121 86/76/122 85/75/123 88/139/124
f 89/79/125 87/77/121 88/78/124 90/80/126
s 14
f 91/136/127 89/79/128 90/80/129 92/137/130
f 79/69/131 91/81/127 92/82/130 80/70/132
s 15
f 93/133/133 94/84/134 95/85/135 96/134/136
s 16
f 98/131/137 97/130/138 95/85/139 94/84/140
f 100/89/141 99/90/142 97/88/138 98/87/137
s 17
f 101/126/143 99/90/144 100/89/145 102/127/146
f 103/93/147 101/91/143 102/92/146 104/94/148
s 18
f 105/123/149 103/93/150 104/94/151 106/124/152
f 107/97/153 105/95/149 106/96/152 108/98/154
s 15
f 108/98/155 93/83/133 96/86/136 107/97/156
s 19
f 44/99/157 62/100/158 61/101/159 28/102/160
f 40/103/161 63/104/162 62/100/158 44/99/157
s 20
f 40/103/163 41/105/164 64/145/165 63/104/166
f 41/149/164 42/107/167 65/108/168 64/106/165
s 21
f 66/109/169 65/108/170 42/107/171 43/110/172
f 67/111/173 66/109/169 43/110/172 30/112/174
s 22
f 68/113/175 67/111/176 30/112/177 29/114/178
f 61/101/179 68/113/175 29/114/178 28/102/180
f 29/114/178 30/112/177 70/115/181 69/116/182
s 21
f 43/110/172 71/117/183 70/115/184 30/112/174
f 42/107/171 72/118/185 71/117/183 43/110/172
s 20
f 73/128/186 72/118/187 42/107/167 41/149/164
f 74/120/188 73/119/186 41/105/164 40/103/163
s 19
f 75/121/189 74/120/190 40/103/161 44/99/157
f 76/122/191 75/121/189 44/99/157 28/102/160
s 22
f 28/102/180 29/114/178 69/116/182 76/122/192
s 23
f 46/66/193 45/43/194 79/69/195 78/147/196
s 24
f 61/101/197 62/100/198 77/146/199 80/70/200
s 23
f 47/60/201 46/148/193 78/68/196 82/72/202
s 24
f 62/100/198 63/104/203 81/71/204 77/67/199
f 63/104/203 64/145/205 83/142/206 81/71/204
s 23
f 48/61/207 47/60/201 82/72/202 84/143/208
s 24
f 64/106/205 65/108/209 85/75/210 83/73/206
s 23
f 49/62/211 48/144/207 84/74/208 86/76/212
f 50/64/213 49/62/211 86/76/212 87/140/214
s 24
f 65/108/209 66/109/215 88/139/216 85/75/210
s 23
f 51/44/217 50/141/213 87/77/214 89/79/218
s 24
f 66/109/215 67/111/219 90/80/220 88/78/216
s 23
f 52/42/221 51/44/217 89/79/218 91/136/222
s 24
f 67/111/219 68/113/223 92/137/224 90/80/220
s 23
f 45/43/194 52/138/221 91/81/222 79/69/195
s 24
f 68/113/223 61/101/197 80/70/200 92/82/224
s 25
f 69/116/225 70/115/226 94/84/227 93/133/228
s 26
f 54/49/229 53/135/230 96/134/231 95/85/232
f 55/63/233 54/49/229 95/85/232 97/130/234
s 25
f 70/115/226 71/117/235 98/131/236 94/84/227
s 26
f 56/59/237 55/132/233 97/88/234 99/90/238
s 25
f 71/117/235 72/118/239 100/89/240 98/87/236
s 26
f 57/57/241 56/59/237 99/90/238 101/126/242
s 25
f 72/118/239 73/128/243 102/127/244 100/89/240
s 26
f 58/58/245 57/129/241 101/91/242 103/93/246
s 25
f 73/119/243 74/120/247 104/94/248 102/92/244
s 26
f 59/65/249 58/58/245 103/93/246 105/123/250
s 25
f 74/120/247 75/121/251 106/124/252 104/94/248
s 26
f 60/45/253 59/125/249 105/95/250 107/97/254
s 25
f 75/121/251 76/122/255 108/98/256 106/96/252
f 76/122/255 69/116/225 93/83/228 108/98/256
s 26
f 53/46/230 60/45/253 107/97/254 96/86/231
