# This file uses meters as units for non-parametric coordinates.

mtllib Recipiente_3.mtl
g default
v 438.352577 -28.672669 4387.822428
v 454.116208 -28.672669 4393.141879
v 469.879839 -28.672669 4387.822428
v 448.418257 32.602582 4377.756745
v 454.116208 32.602582 4379.679528
v 459.814159 32.602582 4377.756745
v 446.495472 32.602582 4372.058795
v 454.116208 32.602582 4372.058797
v 461.736944 32.602582 4372.058795
v 448.418257 32.602582 4366.360843
v 454.116208 32.602582 4364.438060
v 459.814159 32.602582 4366.360843
v 438.352577 -28.672669 4356.295165
v 454.116208 -28.672669 4350.975713
v 469.879839 -28.672669 4356.295165
v 433.033125 -28.672669 4372.058796
v 454.116208 -28.672669 4372.058796
v 475.199291 -28.672669 4372.058796
v 454.116208 -20.126252 4399.340235
v 433.718117 -20.126252 4392.456887
v 426.834769 -20.126252 4372.058796
v 433.718117 -20.126252 4351.660706
v 454.116208 -20.126252 4344.777358
v 474.514299 -20.126252 4351.660706
v 481.397647 -20.126252 4372.058796
v 474.514299 -20.126252 4392.456887
v 454.116208 21.008004 4378.426994
v 449.354765 21.008004 4376.820237
v 447.748006 21.008004 4372.058794
v 449.354765 21.008004 4367.297351
v 454.116208 21.008004 4365.690595
v 458.877651 21.008004 4367.297351
v 460.484410 21.008004 4372.058794
v 458.877651 21.008004 4376.820237
vt 0.604915 0.166047
vt 0.656478 0.147311
vt 0.711562 0.272682
vt 0.695670 0.272682
vt 0.590891 0.113053
vt 0.652932 0.113053
vt 0.715279 0.310937
vt 0.699759 0.310937
vt 0.550463 0.204354
vt 0.683407 0.286932
vt 0.531129 0.165398
vt 0.686335 0.310937
vt 0.777609 0.147311
vt 0.816495 0.147311
vt 0.790036 0.272682
vt 0.770178 0.272682
vt 0.777980 0.113052
vt 0.817674 0.113052
vt 0.789761 0.310937
vt 0.770466 0.310937
vt 0.740161 0.147311
vt 0.749983 0.272682
vt 0.900423 0.015898
vt 0.751259 0.310937
vt 0.826276 0.351464
vt 0.809500 0.351464
vt 0.809503 0.331699
vt 0.834632 0.331699
vt 0.792795 0.351464
vt 0.784595 0.331699
vt 0.808943 0.310937
vt 0.827281 0.310937
vt 0.792205 0.310937
vt 0.904765 0.113052
vt 0.862025 0.113052
vt 0.901021 0.070523
vt 0.939870 0.113052
vt 0.913569 0.147311
vt 0.859603 0.147311
vt 0.861301 0.015898
vt 0.939221 0.015898
vt 0.701156 0.147311
vt 0.730236 0.272682
vt 0.732660 0.310937
vt 0.824542 0.272682
vt 0.808423 0.272682
vt 0.835267 0.068315
vt 0.699615 0.113052
vt 0.739701 0.113052
vt 0.966151 0.065647
vn -0.299739 -0.905711 0.299739
vn 0.000000 -0.913637 0.406531
vn 0.000000 0.225468 0.974251
vn -0.686279 0.240920 0.686279
vn 0.299739 -0.905711 0.299739
vn 0.686279 0.240920 0.686279
vn -0.647459 0.401987 0.647459
vn 0.000000 0.427145 0.904183
vn 0.000000 1.000000 0.000000
vn -0.904183 0.427145 0.000000
vn 0.647459 0.401987 0.647459
vn 0.904183 0.427145 0.000000
vn 0.000000 0.427145 -0.904183
vn -0.647459 0.401987 -0.647459
vn 0.647459 0.401987 -0.647459
vn -0.686279 0.240920 -0.686279
vn 0.000000 0.225468 -0.974251
vn 0.000000 -0.913637 -0.406531
vn -0.299739 -0.905711 -0.299739
vn 0.686279 0.240920 -0.686279
vn 0.299739 -0.905711 -0.299739
vn 0.000000 -1.000000 0.000000
vn -0.406531 -0.913637 0.000000
vn 0.406531 -0.913637 0.000000
vn 0.974251 0.225468 0.000000
vn -0.974251 0.225468 0.000000
vn 0.000000 0.408487 0.912764
vn -0.638758 0.428923 0.638759
vn -0.912764 0.408487 -0.000000
vn -0.638758 0.428923 -0.638759
vn 0.000000 0.408487 -0.912764
vn 0.638759 0.428923 -0.638759
vn 0.912764 0.408487 -0.000000
vn 0.638759 0.428923 0.638759
s 1
g pCube17
usemtl lambert11SG
f 1/6/1 2/48/2 19/42/3 20/2/4
f 2/48/2 3/49/5 26/21/6 19/42/3
f 4/25/7 5/26/8 8/27/9 7/28/10
f 5/26/8 6/29/11 9/30/12 8/27/9
f 7/28/10 8/27/9 11/31/13 10/32/14
f 8/27/9 9/30/12 12/33/15 11/31/13
f 22/38/16 23/39/17 14/35/18 13/34/19
f 23/39/17 24/14/20 15/18/21 14/35/18
f 13/34/19 14/35/18 17/36/22 16/37/23
f 14/35/18 15/47/21 18/40/24 17/36/22
f 16/37/23 17/36/22 2/41/2 1/50/1
f 17/36/22 18/40/24 3/23/5 2/41/2
f 18/17/24 15/18/21 24/14/20 25/13/25
f 3/49/5 18/17/24 25/13/25 26/21/6
f 13/11/19 16/5/23 21/1/26 22/9/16
f 16/5/23 1/6/1 20/2/4 21/1/26
f 20/2/4 19/42/3 27/43/27 28/3/28
f 21/1/26 20/2/4 28/3/28 29/4/29
f 22/9/16 21/1/26 29/4/29 30/10/30
f 30/45/30 31/46/31 23/39/17 22/38/16
f 31/46/31 32/15/32 24/14/20 23/39/17
f 25/13/25 24/14/20 32/15/32 33/16/33
f 26/21/6 25/13/25 33/16/33 34/22/34
f 19/42/3 26/21/6 34/22/34 27/43/27
f 28/3/28 27/43/27 5/44/8 4/7/7
f 29/4/29 28/3/28 4/7/7 7/8/10
f 30/10/30 29/4/29 7/8/10 10/12/14
f 10/32/14 11/31/13 31/46/31 30/45/30
f 11/31/13 12/19/15 32/15/32 31/46/31
f 33/16/33 32/15/32 12/19/15 9/20/12
f 34/22/34 33/16/33 9/20/12 6/24/11
f 27/43/27 34/22/34 6/24/11 5/44/8
