# This file uses centimeters as units for non-parametric coordinates.

mtllib screen.mtl
g default
v 2.992826 6.995939 20.654022
v 3.571643 7.332827 20.713590
v 10.697893 6.995939 20.654022
v 10.119075 7.332827 20.713590
v 2.992826 4.300502 20.177419
v 3.571643 3.963614 20.117852
v 10.119075 3.963614 20.117852
v 10.697893 4.300502 20.177419
vt 0.038589 0.199089
vt 0.368267 0.199089
vt 0.038589 0.329376
vt 0.063355 0.182805
vt 0.343501 0.345659
vt 0.343501 0.182805
vt 0.063355 0.345659
vt 0.368267 0.329376
vn 0.000000 0.174117 -0.984725
vn 0.000000 0.174117 -0.984725
vn 0.000000 0.174117 -0.984725
vn 0.000000 0.174117 -0.984725
vn 0.000000 0.174117 -0.984725
vn 0.000000 0.174117 -0.984725
vn 0.000000 0.174117 -0.984725
vn 0.000000 0.174117 -0.984725
s off
g pCube8
usemtl initialShadingGroup
f 1/1/1 2/4/2 4/6/3 3/2/4 8/8/5 7/5/6 6/7/7 5/3/8
