# This file uses meters as units for non-parametric coordinates.

mtllib Wall_1.mtl
g default
v 500.000008 0.000000 2770.298340
v 500.000008 0.000000 3770.298340
v 468.973946 250.000000 2801.199982
v 468.973946 250.000000 3739.396698
v 599.514534 0.000000 2872.488205
v 537.612923 250.000000 2872.488205
v 599.514534 0.000000 3668.108704
v 537.612923 250.000000 3668.108704
v 500.000008 189.030800 3770.298340
v 599.514534 189.030800 3668.108704
v 599.514534 189.030800 2872.488205
v 500.000008 189.030800 2770.298340
vt 0.009235 0.280128
vt 0.142710 0.280128
vt 0.144143 0.467512
vt 0.023147 0.467512
vt 0.855857 0.467512
vt 0.857290 0.280128
vt 0.990765 0.280128
vt 0.976853 0.467512
vt 0.963563 0.527950
vt 0.861940 0.527950
vt 0.138059 0.527950
vt 0.036437 0.527950
vn -0.716422 0.000000 0.697667
vn -0.993913 0.000000 0.110167
vn -0.970634 -0.223582 0.088776
vn -0.700699 -0.211433 0.681408
vn -0.970634 -0.223582 -0.088776
vn -0.993913 0.000000 -0.110167
vn -0.716422 0.000000 -0.697668
vn -0.700698 -0.211432 -0.681409
vn -0.581722 -0.586218 -0.563869
vn -0.697999 -0.707826 -0.108534
vn -0.697999 -0.707826 0.108534
vn -0.581722 -0.586219 0.563868
s 1
g Pared6
usemtl lambert10SG
f 1/1/1 5/2/2 11/3/3 12/4/4
f 10/5/5 11/3/3 5/2/2 7/6/6
f 7/6/6 2/7/7 9/8/8 10/5/5
f 10/5/5 9/8/8 4/9/9 8/10/10
f 8/10/10 6/11/11 11/3/3 10/5/5
f 12/4/4 11/3/3 6/11/11 3/12/12
