# This file uses meters as units for non-parametric coordinates.

mtllib Wall_3.mtl
g default
v -500.000000 0.000000 2770.298244
v 500.000000 0.000000 2770.298244
v -469.098396 250.000000 2801.324306
v 469.098396 250.000000 2801.324306
v -397.810249 0.000000 2670.783718
v -397.810249 250.000000 2732.685329
v 397.810249 0.000000 2670.783718
v 397.810249 250.000000 2732.685329
v 500.000000 189.030800 2770.298244
v 397.810249 189.030800 2670.783718
v -397.810249 189.030800 2670.783718
v -500.000000 189.030800 2770.298244
v 0.000000 198.965683 2670.783718
v 0.000000 250.000000 2732.685329
v -94.790602 0.000000 2670.783718
v -94.790611 189.030800 2670.783718
v -94.790602 250.000000 2732.685329
v 94.790611 250.000000 2732.685329
v 94.790602 189.030800 2670.783718
v 94.790611 0.000000 2670.783718
vt 0.009065 0.009213
vt 0.150961 0.009213
vt 0.152948 0.207424
vt 0.022536 0.207424
vt 0.435625 0.207424
vt 0.444890 0.009213
vt 0.849039 0.009213
vt 0.990935 0.009213
vt 0.977464 0.207424
vt 0.847052 0.207424
vt 0.964965 0.271354
vt 0.860166 0.271354
vt 0.431150 0.271354
vt 0.139834 0.271354
vt 0.035035 0.271354
vt 0.564374 0.207424
vt 0.555110 0.009213
vt 0.568851 0.271354
vt 0.500000 0.271354
vt 0.500000 0.217841
vn 0.697667 0.000000 0.716422
vn 0.238501 0.000000 0.971142
vn 0.199838 -0.199802 0.959241
vn 0.681408 -0.211432 0.700699
vn 0.003325 -0.286463 0.958085
vn 0.000000 0.000000 1.000000
vn -0.238501 0.000000 0.971142
vn -0.697667 0.000000 0.716422
vn -0.681408 -0.211432 0.700699
vn -0.199838 -0.199802 0.959241
vn -0.563868 -0.586218 0.581722
vn -0.221850 -0.693845 0.685099
vn 0.008981 -0.719265 0.694678
vn 0.221850 -0.693845 0.685099
vn 0.563868 -0.586218 0.581722
vn -0.003325 -0.286463 0.958085
vn 0.000000 0.000000 1.000000
vn -0.008981 -0.719265 0.694678
vn 0.000000 -0.741562 0.670884
vn 0.000000 -0.741562 0.670884
s 1
g ParedPuerta6
usemtl lambert10SG
f 1/1/1 5/2/2 11/3/3 12/4/4
f 16/5/5 11/3/3 5/2/2 15/6/6
f 7/7/7 2/8/8 9/9/9 10/10/10
f 10/10/10 9/9/9 4/11/11 8/12/12
f 17/13/13 6/14/14 11/3/3 16/5/5
f 12/4/4 11/3/3 6/14/14 3/15/15
f 10/10/10 19/16/16 20/17/17 7/7/7
f 8/12/12 18/18/18 19/16/16 10/10/10
f 14/19/19 17/13/13 16/5/5 13/20/20
f 18/18/18 14/19/19 13/20/20 19/16/16
